<?xml version="1.0" encoding="UTF-8" standalone="no"?>
<svg
   xmlns:dc="http://purl.org/dc/elements/1.1/"
   xmlns:cc="http://creativecommons.org/ns#"
   xmlns:rdf="http://www.w3.org/1999/02/22-rdf-syntax-ns#"
   xmlns:svg="http://www.w3.org/2000/svg"
   xmlns="http://www.w3.org/2000/svg"
   xmlns:sodipodi="http://sodipodi.sourceforge.net/DTD/sodipodi-0.dtd"
   xmlns:inkscape="http://www.inkscape.org/namespaces/inkscape"
   viewBox="0 0 519 476.11469"
   id="svg2"
   version="1.1"
   inkscape:version="0.91 r13725"
   sodipodi:docname="dia.svg"
   inkscape:export-filename="D:\Daten\Repositories\GIT\PFS\res\icons\dia.png"
   inkscape:export-xdpi="26.01"
   inkscape:export-ydpi="26.01">
  <metadata
     id="metadata28">
    <rdf:RDF>
      <cc:Work
         rdf:about="">
        <dc:format>image/svg+xml</dc:format>
        <dc:type
           rdf:resource="http://purl.org/dc/dcmitype/StillImage" />
        <dc:title />
      </cc:Work>
    </rdf:RDF>
  </metadata>
  <defs
     id="defs26" />
  <sodipodi:namedview
     pagecolor="#ffffff"
     bordercolor="#666666"
     borderopacity="1"
     objecttolerance="10"
     gridtolerance="10"
     guidetolerance="10"
     inkscape:pageopacity="0"
     inkscape:pageshadow="2"
     inkscape:window-width="1080"
     inkscape:window-height="1858"
     id="namedview24"
     showgrid="false"
     inkscape:zoom="0.35049791"
     inkscape:cx="453.75845"
     inkscape:cy="-472.87521"
     inkscape:window-x="-8"
     inkscape:window-y="-8"
     inkscape:window-maximized="1"
     inkscape:current-layer="svg2" />
  <g
     transform="translate(-42 -121.26)"
     id="g4">
    <path
       d="m 42,121.26 0,476.11 519,0 0,-476.11 c -173.98614,0.34675 -344.91264,0 -519,0 z m 28.007,25.381 16.629,0 c 3.3941,0 6.1265,2.7324 6.1265,6.1265 l 0,28.882 c 0,3.3941 -2.7324,6.1265 -6.1265,6.1265 l -16.629,0 c -3.3941,0 -6.1265,-2.7324 -6.1265,-6.1265 l 0,-28.882 c 0,-3.3941 2.7324,-6.1265 6.1265,-6.1265 z m 65.149,0 16.629,0 c 3.3941,0 6.1265,2.7324 6.1265,6.1265 l 0,28.882 c 0,3.3941 -2.7324,6.1265 -6.1265,6.1265 l -16.629,0 c -3.3941,0 -6.1265,-2.7324 -6.1265,-6.1265 l 0,-28.882 c 0,-3.3941 2.7324,-6.1265 6.1265,-6.1265 z m 65.121,0 16.629,0 c 3.3941,0 6.1265,2.7324 6.1265,6.1265 l 0,28.882 c 0,3.3941 -2.7324,6.1265 -6.1265,6.1265 l -16.629,0 c -3.3941,0 -6.1265,-2.7324 -6.1265,-6.1265 l 0,-28.882 c 0,-3.3941 2.7324,-6.1265 6.1265,-6.1265 z m 65.149,0 16.629,0 c 3.3941,0 6.1265,2.7324 6.1265,6.1265 l 0,28.882 c 0,3.3941 -2.7324,6.1265 -6.1265,6.1265 l -16.629,0 c -3.3941,0 -6.1265,-2.7324 -6.1265,-6.1265 l 0,-28.882 c 0,-3.3941 2.7324,-6.1265 6.1265,-6.1265 z m 65.148,0 16.629,0 c 3.3941,0 6.1265,2.7324 6.1265,6.1265 l 0,28.882 c 0,3.3941 -2.7324,6.1265 -6.1265,6.1265 l -16.629,0 c -3.3941,0 -6.1265,-2.7324 -6.1265,-6.1265 l 0,-28.882 c 0,-3.3941 2.7324,-6.1265 6.1265,-6.1265 z m 65.148,0 16.629,0 c 3.3941,0 6.1265,2.7324 6.1265,6.1265 l 0,28.882 c 0,3.3941 -2.7324,6.1265 -6.1265,6.1265 l -16.629,0 c -3.3941,0 -6.1265,-2.7324 -6.1265,-6.1265 l 0,-28.882 c 0,-3.3941 2.7324,-6.1265 6.1265,-6.1265 z m 65.121,0 16.629,0 c 3.3941,0 6.1265,2.7324 6.1265,6.1265 l 0,28.882 c 0,3.3941 -2.7324,6.1265 -6.1265,6.1265 l -16.629,0 c -3.3941,0 -6.1265,-2.7324 -6.1265,-6.1265 l 0,-28.882 c 0,-3.3941 2.7324,-6.1265 6.1265,-6.1265 z m 65.149,0 16.629,0 c 3.3941,0 6.1265,2.7324 6.1265,6.1265 l 0,28.882 c 0,3.3941 -2.7324,6.1265 -6.1265,6.1265 l -16.629,0 c -3.3941,0 -6.1265,-2.7324 -6.1265,-6.1265 l 0,-28.882 c 0,-3.3941 2.7324,-6.1265 6.1265,-6.1265 z m -460.36,49.012 471.74,0 c 6.7881,0 12.253,5.4648 12.253,12.253 l 0,300.2 c 0,6.7881 -5.4648,12.253 -12.253,12.253 l -471.74,0 c -6.7881,0 -12.253,-5.4648 -12.253,-12.253 l 0,-300.2 c 0,-6.7881 5.4648,-12.253 12.253,-12.253 z m 3.5008,334.33 16.629,0 c 3.3941,0 6.1265,2.7324 6.1265,6.1265 l 0,28.882 c 0,3.3941 -2.7324,6.1265 -6.1265,6.1265 l -16.629,0 c -3.3941,0 -6.1265,-2.7324 -6.1265,-6.1265 l 0,-28.882 c 0,-3.3941 2.7324,-6.1265 6.1265,-6.1265 z m 65.149,0 16.629,0 c 3.3941,0 6.1265,2.7324 6.1265,6.1265 l 0,28.882 c 0,3.3941 -2.7324,6.1265 -6.1265,6.1265 l -16.629,0 c -3.3941,0 -6.1265,-2.7324 -6.1265,-6.1265 l 0,-28.882 c 0,-3.3941 2.7324,-6.1265 6.1265,-6.1265 z m 65.121,0 16.629,0 c 3.3941,0 6.1265,2.7324 6.1265,6.1265 l 0,28.882 c 0,3.3941 -2.7324,6.1265 -6.1265,6.1265 l -16.629,0 c -3.3941,0 -6.1265,-2.7324 -6.1265,-6.1265 l 0,-28.882 c 0,-3.3941 2.7324,-6.1265 6.1265,-6.1265 z m 65.148,0 16.629,0 c 3.3941,0 6.1265,2.7324 6.1265,6.1265 l 0,28.882 c 0,3.3941 -2.7324,6.1265 -6.1265,6.1265 l -16.629,0 c -3.3941,0 -6.1265,-2.7324 -6.1265,-6.1265 l 0,-28.882 c 0,-3.3941 2.7324,-6.1265 6.1265,-6.1265 z m 65.149,0 16.629,0 c 3.3941,0 6.1265,2.7324 6.1265,6.1265 l 0,28.882 c 0,3.3941 -2.7324,6.1265 -6.1265,6.1265 l -16.629,0 c -3.3941,0 -6.1265,-2.7324 -6.1265,-6.1265 l 0,-28.882 c 0,-3.3941 2.7324,-6.1265 6.1265,-6.1265 z m 65.148,0 16.629,0 c 3.3941,0 6.1265,2.7324 6.1265,6.1265 l 0,28.882 c 0,3.3941 -2.7324,6.1265 -6.1265,6.1265 l -16.629,0 c -3.3941,0 -6.1265,-2.7324 -6.1265,-6.1265 l 0,-28.882 c 0,-3.3941 2.7324,-6.1265 6.1265,-6.1265 z m 65.121,0 16.629,0 c 3.3941,0 6.1265,2.7324 6.1265,6.1265 l 0,28.882 c 0,3.3941 -2.7324,6.1265 -6.1265,6.1265 l -16.629,0 c -3.3941,0 -6.1265,-2.7324 -6.1265,-6.1265 l 0,-28.882 c 0,-3.3941 2.7324,-6.1265 6.1265,-6.1265 z m 65.149,0 16.629,0 c 3.3941,0 6.1265,2.7324 6.1265,6.1265 l 0,28.882 c 0,3.3941 -2.7324,6.1265 -6.1265,6.1265 l -16.629,0 c -3.3941,0 -6.1265,-2.7324 -6.1265,-6.1265 l 0,-28.882 c 0,-3.3941 2.7324,-6.1265 6.1265,-6.1265 z"
       id="path6"
       inkscape:connector-curvature="0"
       style="fill:#273747;fill-opacity:1"
       sodipodi:nodetypes="cccccsssssssssssssssssssssssssssssssssssssssssssssssssssssssssssssssssssssssssssssssssssssssssssssssssssssssssssssssssssssssssssssssssssssssssssssssssssssssss" />
    <path
       d="m 210.72,121.26 0,0.0547 -0.0547,0 0,12.062 -5.5521,0 0,-12.062 -6.2085,0 0,25.491 c 0.44101,-0.10019 0.89534,-0.1641 1.3675,-0.1641 l 16.629,0 c 2.5986,0 4.7953,1.6097 5.6889,3.8838 l 6.0991,0 0,-29.265 -6.2085,0 0,11.679 -5.5521,0 0,-11.679 -6.2085,0 z m 128.22,0 0,25.381 8.2598,0 c 2.6205,0 4.8376,1.6338 5.7162,3.9384 l 3.9932,0 0,-29.32 -6.2085,0 0,11.733 -5.5521,0 0,-11.733 -6.2085,0 z m -296.67,0.0547 0,12.007 6.1812,0 0,-12.007 z m 32.793,0 0,25.326 11.569,0 c 2.7668,0 5.0874,1.8115 5.853,4.3214 l 0.54701,0 0,-29.648 -6.2085,0 0,12.062 -5.5521,0 0,-12.062 -6.2085,0 z m 434.57,0 0,12.007 6.1812,0 0,-12.007 z m 32.793,0 0,25.326 0.19145,0 c 2.7668,0 5.0874,1.8115 5.853,4.3214 l 11.925,0 0,-29.648 -6.2085,0 0,12.062 -5.5521,0 0,-12.062 -6.2085,0 z m -487.47,0.30085 0,11.761 -6.2085,0 0,17.586 6.2085,0 0,-17.313 6.1812,0 0,17.641 2.9265,0 c 0.44124,-1.7905 1.6556,-3.2682 3.282,-4.0478 l 0,-25.627 -12.39,0 z m 467.36,0 0,11.761 -6.2085,0 0,17.586 4.0205,0 c 0.38484,-1.2616 1.1565,-2.3495 2.188,-3.1179 l 0,-14.195 6.1812,0 0,12.991 6.2085,0 0,-25.026 -12.39,0 z m -266.86,0.0273 0,12.034 6.2085,0 0,-12.03421 z m 174.11,2.7077 c -3.313,0.28076 -5.0515,3.9102 -4.8957,7.0017 -0.34085,3.4296 1.1127,8.15 5.388,7.6854 4.5721,-0.29039 5.5689,-7.716 1.4769,-9.4359 -1.4218,-0.88218 -5.2757,1.4241 -3.6102,-1.6684 1.0732,-2.7998 5.9821,0.7191 5.2513,-2.9812 -0.91863,-0.40834 -1.9214,-0.62112 -2.9265,-0.6017 -0.23489,-0.0121 -0.46289,-0.0187 -0.68376,0 z m 9.4906,0.082 c -0.88469,0.0353 -1.7728,0.28053 -2.5436,0.73846 -1.0274,4.8391 3.255,-0.0496 4.9231,2.8444 1.3173,2.0516 1.2353,4.9017 0.3282,7.0837 -0.94851,3.4282 -5.3463,-0.87216 -5.3333,2.3521 0.76314,2.6494 4.6144,1.7696 6.3726,0.65641 2.7007,-2.1518 2.9177,-6.2076 2.106,-9.3265 -0.44004,-2.7738 -3.1989,-4.4546 -5.853,-4.3487 z m -283.16,2.1333 c -1.0123,0.0304 -2.0163,0.29725 -2.7897,0.95727 -1.9358,1.5505 -2.156,5.0775 0.0821,6.4547 -0.19601,0.78318 -1.3695,2.1919 -1.1214,3.4735 -0.10837,2.0393 1.6226,3.8675 3.6376,3.9384 1.6902,0.38614 3.5284,-0.54546 4.2666,-2.106 1.0111,-1.6863 0.33594,-4.3518 -1.6957,-4.8684 0.97808,-0.21427 1.7505,-0.98507 2.188,-1.8598 1.2572,-2.2694 -0.43692,-5.1376 -2.7624,-5.8256 -0.56827,-0.1334 -1.1978,-0.18236 -1.8051,-0.16411 z m -34.489,0.0547 0,3.6102 -17.285,0 0,5.6889 17.285,0 0,3.6102 5.5795,-3.2273 5.5795,-3.2273 -5.5795,-3.2273 -5.5795,-3.2273 z m 48.027,0.0274 c -0.45908,-0.003 -0.92378,0.0871 -1.3402,0.2735 -2.1312,-0.45256 -4.5302,0.78223 -5.2513,2.8718 -0.37647,1.1737 -0.35679,2.8156 0.82051,3.5282 1.2465,0.37643 1.2128,1.8368 0.24615,2.5162 -1.3632,1.0938 -0.78313,3.2868 0.49231,4.212 2.3964,1.6109 5.3796,0.83389 8.0684,1.012 0.0386,-2.1482 -0.0205,-4.3065 -0.0274,-6.4547 -0.22696,-1.9019 0.59112,-3.8137 0.0547,-5.6889 -0.29,-1.4253 -1.686,-2.2609 -3.0632,-2.2701 z m -13.402,2.2427 c 0.7723,-0.0186 1.5518,0.36701 1.8872,1.1761 0.86036,1.2935 -0.0409,3.3678 -1.6957,3.1726 -1.574,0.17745 -2.5182,-1.6847 -1.9419,-3.0085 0.22633,-0.89083 0.97812,-1.3216 1.7504,-1.3402 z m 11.46,0.13675 c 2.0696,-0.049 3.1393,2.6352 2.2974,4.3214 -1.078,0.40495 -2.3839,0.27534 -3.3094,-0.43761 -1.6724,-1.0475 -0.8869,-3.7366 1.012,-3.88379 z m 262.05,2.7076 c 2.1971,0.16007 2.5496,3.6701 0.95726,4.8137 -3.1431,1.6171 -4.1429,-4.5596 -0.95726,-4.8137 z m -193.5,1.2308 0,17.614 6.2085,0 0,-17.614 z m 12.882,0 0,17.614 6.2085,0 0,-17.614 z m 12.882,0 0,14.851 c 1.0123,-0.73919 2.2553,-1.1761 3.6102,-1.1761 l 2.5983,0 0,-13.675 -6.2085,0 z m -93.698,2.48886 c 1.5765,0.0182 2.656,2.047 1.6957,3.3641 -0.91399,0.24628 -1.9426,0.19421 -2.7897,-0.24616 -1.8041,-0.64768 -0.92676,-3.1089 0.76581,-3.0906 0.10908,-0.0175 0.22311,-0.0286 0.32821,-0.0274 z m -11.925,0.0821 c 0.90904,-0.12876 1.9127,0.70711 1.8051,1.7231 0.16418,1.3575 -1.423,2.0717 -2.5436,1.6684 -1.4211,-0.36005 -1.06,-2.2313 -0.0821,-2.8991 0.23546,-0.28692 0.51749,-0.44938 0.82051,-0.49231 z"
       id="path8"
       inkscape:connector-curvature="0"
       style="fill:#2c2c2c"
       sodipodi:nodetypes="ccccccccsscccccccccccsccccccccccccccccsccccccccccccccccscccccccccccccccccccccccccccccccccccccccccccccccccccccccccccccccccccccccccccccccccccccccccccccccccccccccccccccccccccscccccccccccccccc" />
    <path
       d="m42 155.39v19.255h21.88v-19.255h-21.88zm50.762 0v19.255h36.267v-19.255h-36.267zm65.148 0v19.255h36.239v-19.255h-36.239zm65.121 0v19.255h36.267v-19.255h-36.267zm65.149 0v19.255h36.267v-19.255h-36.267zm65.148 0v19.255h36.267v-19.255h-36.267zm65.148 0v19.255h36.239v-19.255h-36.239zm65.121 0v19.255h36.267v-19.255h-36.267zm65.148 0v19.255h12.253v-19.255h-12.253z"
       fill="#2c2c2c"
       id="path10" />
    <path
       d="m42 538.6v19.802h21.005v-19.802h-21.005zm49.887 0v19.802h36.267v-19.802h-36.267zm65.148 0v19.802h36.239v-19.802h-36.239zm65.121 0v19.802h36.267v-19.802h-36.267zm65.148 0v19.802h36.267v-19.802h-36.267zm65.149 0v19.802h36.267v-19.802h-36.267zm65.148 0v19.802h36.239v-19.802h-36.239zm65.121 0v19.802h36.267v-19.802h-36.267zm65.149 0v19.802h13.128v-19.802h-13.128z"
       fill="#2c2c2c"
       id="path12" />
    <path
       d="m46.294 575.11v22.263h12.362v-22.263h-12.362zm17.942 0v22.263h8.041v-22.263h-8.041zm120.07 0v22.263h12.362v-22.263h-12.362zm17.942 0v22.263h8.041v-22.263h-8.041zm12.636 0v22.263h8.041v-22.263h-8.041zm166.29 0v22.263h8.041v-22.263h-8.041zm12.253 0v22.263h8.041v-22.263h-8.041zm11.815 0v22.263h12.362v-22.263h-12.362zm30.195 0v22.263h8.041v-22.263h-8.041zm12.253 0v22.263h8.041v-22.263h-8.041zm12.253 0v22.263h8.041v-22.263h-8.041zm68.266 0v22.263h8.041v-22.263h-8.041zm13.183 0v22.263h12.362v-22.263h-12.362z"
       fill="#2c2c2c"
       id="path14" />
    <path
       d="m148.52 583.1c1.4318 0.11881 2.4276-1.6138 1.8671-2.8636-0.49472-1.3867-2.6474-1.7324-3.468-0.45926-0.79919 1.0826-0.35933 2.9968 1.0694 3.2686 0.17361 0.04195 0.35294 0.06057 0.53149 0.0542m1.9641 1.1211c1.781 0.47038 2.5452 2.698 1.8543 4.3062-0.52869 1.3811-1.9899 2.2208-3.4349 2.2273-1.7112 0.17625-3.7312-0.60957-4.2584-2.384-0.51794-1.4692 0.02795-3.4306 1.5704-4.0277 0.2275-0.47041-1.0542-0.44321-1.1822-1.0244-1.6448-1.8033-0.99692-5.198 1.3319-6.0912 1.8598-0.62517 4.24-0.56868 5.6452 0.97156 1.3642 1.6234 1.2026 4.4937-0.67963 5.6601-0.26414 0.15833-0.5501 0.27984-0.84683 0.36197zm-0.27803 2.7175c0.17735-1.3798-1.7171-2.2806-2.7465-1.4106-1.0394 0.77149-0.79778 2.7505 0.53991 3.0436 1.0338 0.34274 2.3372-0.47888 2.2066-1.633zm-10.888-3.731v-3.9642c-1.1851 0.09812-2.5571-0.29647-3.5711 0.50324-0.70577 0.82963-0.63724 2.2369 0.12049 3.0022 0.99432 0.74841 2.3068 0.36079 3.4506 0.45868zm0 5.2198c-0.21484-0.98368 0.37516-2.083-0.2144-2.9818-0.92108-0.19588-2.1792-0.3272-3.0219 0.30578-0.81203 0.8097-0.34361 2.5863 0.89301 2.6311 0.77766 0.10396 1.5626 0.01079 2.3433 0.04487zm2.5561 2.1076c-2.3122-0.11892-4.7067 0.32031-6.9483-0.42611-1.1962-0.4928-1.9742-1.7721-1.8663-3.0612-0.0118-1.2367 0.83805-2.5683 2.1516-2.6732 0.31633-0.29212-0.92386-0.18433-1.1289-0.53996-1.1488-0.68808-1.6301-2.0962-1.4903-3.3812 0.05263-1.3012 0.85509-2.6647 2.1984-2.9526 2.1324-0.69292 4.3926-0.19344 6.5795-0.41704 1.0977 0.5147 0.21494 1.9894 0.50424 2.922v10.529z"
       id="path16" />
    <path
       d="m341.86 589.64c-2.9521 0.54225-2.2204-3.5806-4.0888-4.6445-2.7286-0.66559-1.5715 4.8627-4.1938 3.774-1.7149-1.7087-0.17656-4.0081-0.20872-6.0021-0.00972-1.892-0.58275-3.8553 0.10485-5.6935 2.1392-1.6176 3.572 2.1366 2.3109 3.563 0.74699 2.725 4.9888 0.32121 2.935-1.6911-0.15467-2.9347 4.4883-2.0658 3.2262 0.66414-0.11141 2.8246-0.33932 5.6518-0.07845 8.4743 0.00623 0.51855 0.00571 1.0372-0.00725 1.5557zm-19.668-13.39 8.3408-1e-5v13.39h-8.3408c-0.13048-2.9474 3.819-1.8791 5.1791-3.3175 0.96591-3.0933-4.7216-1.0346-3.9493-3.4371 1.1001-1.7093 5.02 0.23108 4.1792-2.8946-0.69304-2.3976-3.1764-1.2459-4.7259-1.7303-0.7276-0.35133-1.2839-1.2907-0.68304-2.0107zm-2.8879 2.3318c-2.3849-0.66276-3.6294 2.2313-3.6141 4.1741-0.3742 2.377 2.4569 3.4721 2.4912 5.5924-0.44223 2.7975-4.58 1.5922-4.5194-0.85583-0.38662-2.6892 1.3707-5.7367-0.48296-8.158-2.701-0.86046-0.7895-4.5674 1.5658-3.2323 1.6743-0.07375 4.9818-0.03142 4.5594 2.4796zm-13.776 4.3498c-0.99091 2.0957-1.8743-2.2399-0.32799-0.69591 0.13323 0.20502 0.36046 0.42116 0.32799 0.69591zm-1.1121 4.7085c2.2332-1.396 1.5289-4.373 2.2592-6.533 0.12556-2.3528-4.3313-2.4856-4.1576-0.04835 0.38588 2.2131-0.52301 5.2201 1.8984 6.5814zm4.4215-4.7085c0.36927 2.7792-0.87795 6.3615-3.9224 6.9738-2.6323 0.25664-5.0938-2.3074-4.7853-4.9221-0.55221-3.0254-0.16186-6.7251 2.5102-8.6694 2.6803-1.3011 6.1128 1.0734 6.0075 4.0154 0.14315 0.85953 0.17796 1.7324 0.18992 2.6023zm-14.359 0c-0.99089 2.0957-1.8744-2.2399-0.328-0.6959 0.13325 0.205 0.36048 0.42116 0.328 0.6959zm-1.1121 4.7085c2.2332-1.396 1.5289-4.373 2.2592-6.533 0.12558-2.3528-4.3313-2.4856-4.1576-0.04836 0.38588 2.2131-0.52301 5.2201 1.8984 6.5814zm4.4215-4.7085c0.36927 2.7792-0.87797 6.3615-3.9224 6.9738-2.6323 0.25664-5.0938-2.3075-4.7853-4.9221-0.55226-3.0254-0.16186-6.7251 2.5103-8.6694 2.6803-1.3011 6.1127 1.0735 6.0076 4.0154 0.14317 0.85953 0.17801 1.7324 0.18991 2.6023z"
       id="path18" />
    <path
       d="m109.39925,567.77312c1.71594-.94883 4.08264-.95199 5.58053.41709 1.28224,1.30479 1.45511,3.33074 1.03393,5.03265-.39016,1.46762-1.68596,2.67343-3.21832,2.82074-1.05048.16303-2.14063-.01995-3.10461-.45844-.52352-.47442-.38739-1.65838-.08035-1.98327 .99845.65355 2.41196,1.00314 3.4528.24354 .87697-.69981.97746-1.95653.82279-2.99143-.13118-.88034-.76094-1.71607-1.67812-1.85857-.74269-.15535-1.53031.00565-2.18936.36885-.65259.74541-.7346-.32802-.61934-.83361 .00238-.25251.0046-.50505 5e-005-.75755zm-9.38918,0c1.71594-.94883 4.08263-.95199 5.58053.41709 1.28224,1.30479 1.45511,3.33074 1.03392,5.03265-.39016,1.46762-1.68596,2.67343-3.21831,2.82074-1.05048.16303-2.14063-.01995-3.10461-.45844-.52352-.47442-.38739-1.65838-.08036-1.98327 .99845.65355 2.41196,1.00314 3.45281.24354 .87697-.69981.97746-1.95653.82278-2.99143-.13117-.88034-.76093-1.71607-1.67812-1.85857-.74269-.15535-1.5303.00565-2.18935.36885-.65259.74541-.7346-.32802-.61935-.83361 .00238-.25251.00461-.50505 6e-005-.75755z"
       id="path20" />
    <path
       d="m247.68255,567.77312c1.71595-.94883 4.08264-.95199 5.58054.41709 1.28224,1.30479 1.45511,3.33074 1.03392,5.03265-.39015,1.46762-1.68595,2.67343-3.21832,2.82074-1.05048.16303-2.14062-.01995-3.1046-.45844-.52352-.47442-.38738-1.65838-.08036-1.98327 .99845.65355 2.41197,1.00314 3.45281.24354 .87697-.69981.97746-1.95653.82278-2.99143-.13118-.88034-.76093-1.71607-1.67812-1.85857-.74269-.15535-1.53031.00565-2.18936.36885-.65258.74541-.7346-.32802-.61934-.83361 .00239-.25251.0046-.50505 5e-005-.75755zm-9.38918,0c1.71595-.94883 4.08264-.95199 5.58054.41709 1.28223,1.30479 1.45511,3.33074 1.03392,5.03265-.39016,1.46762-1.68596,2.67343-3.21832,2.82074-1.05048.16303-2.14062-.01995-3.10461-.45844-.52351-.47442-.38738-1.65838-.08035-1.98327 .99845.65355 2.41196,1.00314 3.4528.24354 .87697-.69981.97746-1.95653.82279-2.99143-.13118-.88034-.76094-1.71607-1.67812-1.85857-.7427-.15535-1.53031.00565-2.18936.36885-.65258.74541-.7346-.32802-.61934-.83361 .00238-.25251.0046-.50505 5e-005-.75755z"
       id="path22" />
  </g>
</svg>
