<?xml version="1.0" encoding="UTF-8" standalone="no"?>
<svg
   xmlns:dc="http://purl.org/dc/elements/1.1/"
   xmlns:cc="http://creativecommons.org/ns#"
   xmlns:rdf="http://www.w3.org/1999/02/22-rdf-syntax-ns#"
   xmlns:svg="http://www.w3.org/2000/svg"
   xmlns="http://www.w3.org/2000/svg"
   xmlns:sodipodi="http://sodipodi.sourceforge.net/DTD/sodipodi-0.dtd"
   xmlns:inkscape="http://www.inkscape.org/namespaces/inkscape"
   version="1.1"
   width="24"
   height="24"
   viewBox="0 0 24 24"
   id="svg2"
   inkscape:version="0.91 r13725"
   sodipodi:docname="image-remove.svg"
   inkscape:export-filename="D:\Daten\Repositories\GIT\PFS\res\icons\image_remove_32.png"
   inkscape:export-xdpi="120"
   inkscape:export-ydpi="120">
  <metadata
     id="metadata10">
    <rdf:RDF>
      <cc:Work
         rdf:about="">
        <dc:format>image/svg+xml</dc:format>
        <dc:type
           rdf:resource="http://purl.org/dc/dcmitype/StillImage" />
      </cc:Work>
    </rdf:RDF>
  </metadata>
  <defs
     id="defs8" />
  <sodipodi:namedview
     pagecolor="#ffffff"
     bordercolor="#666666"
     borderopacity="1"
     objecttolerance="10"
     gridtolerance="10"
     guidetolerance="10"
     inkscape:pageopacity="0"
     inkscape:pageshadow="2"
     inkscape:window-width="1080"
     inkscape:window-height="1858"
     id="namedview6"
     showgrid="false"
     inkscape:zoom="9.8333333"
     inkscape:cx="12"
     inkscape:cy="12"
     inkscape:window-x="-8"
     inkscape:window-y="-8"
     inkscape:window-maximized="1"
     inkscape:current-layer="svg2" />
  <path
     d="M 15.91375,6.5000002 13,3.5862501 14.58625,2 17.5,4.9137501 20.41375,2 22,3.5862501 19.08625,6.5000002 22,9.41375 20.41375,11 17.5,8.0862502 14.58625,11 13,9.41375 15.91375,6.5000002 Z"
     id="path4"
     inkscape:connector-curvature="0"
     style="fill:#929292;fill-opacity:1" />
  <path
     id="path4138"
     style="fill:#929292;fill-opacity:1"
     d="m 14,20.666678 -4.6e-5,-9.3333 c -3e-6,-0.739996 -0.600003,-1.333329 -1.333334,-1.333333 L 3.3333214,9.9999999 A 1.3333348,1.3333217 44.77071 0 0 2,11.333321 l 4.57e-5,9.333299 a 1.3333348,1.3333217 44.77071 0 0 1.3333342,1.333334 L 12.666678,22 A 1.3333348,1.3333217 44.77071 0 0 14,20.666678 Z m -8.3333176,-3.666695 1.6666684,2 2.33331,-2.999976 3.0000072,4 -9.3332962,-4.6e-5"
     inkscape:connector-curvature="0" />
</svg>
