<?xml version="1.0" encoding="UTF-8" standalone="no"?>
<svg
   xmlns:svg="http://www.w3.org/2000/svg"
   xmlns="http://www.w3.org/2000/svg"
   xml:space="preserve"
   width="1024px"
   height="1024px"
   shape-rendering="geometricPrecision"
   text-rendering="geometricPrecision"
   image-rendering="optimizeQuality"
   fill-rule="nonzero"
   clip-rule="evenodd"
   viewBox="0 0 10240 10240"
   version="1.1"
   id="svg7">
   <title id="title2">music icon</title>
   <path style="fill:#34495e;stroke-width:0.07694983;fill-opacity:1"
       d="M 704 64 L 260.92383 166.83984 L 260.92383 553.64844 C 240.38537 547.10543 214.76848 547.0273 187.07617 554.87891 C 119.07617 574.20003 64 634.01113 64 688.43359 C 64 742.85604 119.07617 771.26057 187.07617 751.93945 C 255.07617 732.61833 310.1543 672.88535 310.1543 618.46289 L 310.1543 253.97852 L 654.76953 174 L 654.76953 404.02734 C 670.80421 401.39241 687.24435 400 704 400 L 704 64 z M 703.74805 550.86133 C 625.67678 550.98473 562.0807 608.28269 552.19922 683.50391 C 561.41484 682.64637 571.03144 680.85374 580.92383 678.04297 C 646.31043 659.46441 699.73715 603.51982 703.74805 550.86133 z "
       transform="scale(10)"
       id="curve0" />
   <ellipse style="opacity:1;fill:#ffffff;fill-opacity:1;stroke:none;stroke-width:960;stroke-linejoin:miter;stroke-miterlimit:4;stroke-dasharray:none;stroke-opacity:1"
       id="path4535"
       cx="7051.1162" cy="7063.8213" rx="2333.4326" ry="2236.0298" />
   <g id="g830" transform="matrix(0.57142855,0,0,0.57142857,3196.9008,5676.3197)"
       style="fill:#34495e;fill-opacity:1">
     <path d="m 5408.4237,-530.55932 1317,2277.00002 v 0 c 116,0 226,31 320,85 l 1718,-994.00002 c 129,170.00002 238,355.00002 321,554.00002 l -1719,995 v 0 c 0,353 -287,640 -640,640 -353,0 -640,-287 -640,-640 0,-116 31,-226 85,-320 l -1316,-2276.00002 c 172,-125 358,-233 554,-321 z"
         id="curve1"
         style="fill:#34495f;stroke-width:1;fill-opacity:1" />
     <path d="m 6725.4237,-2093.5593 c 2474,0 4480.0003,2005.999978 4480.0003,4480 0,2474 -2006.0003,4480 -4480.0003,4480 -2474,0 -4480,-2006 -4480,-4480 0,-2474.000022 2006,-4480 4480,-4480 z m 0,960 c -1944,0 -3520,1575.99998 -3520,3520 0,1944 1576,3520 3520,3520 1944,0 3520.0003,-1576 3520.0003,-3520 0,-1944.00002 -1576.0003,-3520 -3520.0003,-3520 z"
         id="curve0-2"
         style="fill:#34495e;stroke-width:1;fill-opacity:1" />
   </g>
</svg>