<?xml version="1.0" encoding="UTF-8" standalone="no"?>
<svg
   xmlns:dc="http://purl.org/dc/elements/1.1/"
   xmlns:cc="http://creativecommons.org/ns#"
   xmlns:rdf="http://www.w3.org/1999/02/22-rdf-syntax-ns#"
   xmlns:svg="http://www.w3.org/2000/svg"
   xmlns="http://www.w3.org/2000/svg"
   xmlns:sodipodi="http://sodipodi.sourceforge.net/DTD/sodipodi-0.dtd"
   xmlns:inkscape="http://www.inkscape.org/namespaces/inkscape"
   version="1.0"
   width="256.000000pt"
   height="256.000000pt"
   viewBox="0 0 256.000000 256.000000"
   preserveAspectRatio="xMidYMid meet"
   id="svg16"
   sodipodi:docname="photofilmstrip.svg"
   inkscape:version="0.92.2 (5c3e80d, 2017-08-06)"
   inkscape:export-filename="/home/jens/Projects/PhotoFilmStrip/PFS/res/icon/photofilmstrip.svg.png"
   inkscape:export-xdpi="140.62"
   inkscape:export-ydpi="140.62">
  <defs
     id="defs20" />
  <sodipodi:namedview
     pagecolor="#ffffff"
     bordercolor="#666666"
     borderopacity="1"
     objecttolerance="10"
     gridtolerance="10"
     guidetolerance="10"
     inkscape:pageopacity="0"
     inkscape:pageshadow="2"
     inkscape:window-width="1920"
     inkscape:window-height="1016"
     id="namedview18"
     showgrid="false"
     inkscape:zoom="1.9555922"
     inkscape:cx="-14.094699"
     inkscape:cy="200.38269"
     inkscape:window-x="0"
     inkscape:window-y="27"
     inkscape:window-maximized="1"
     inkscape:current-layer="svg16"
     inkscape:pagecheckerboard="true" />
  <metadata
     id="metadata2">
Created by potrace 1.14, written by Peter Selinger 2001-2017
<rdf:RDF>
  <cc:Work
     rdf:about="">
    <dc:format>image/svg+xml</dc:format>
    <dc:type
       rdf:resource="http://purl.org/dc/dcmitype/StillImage" />
    <dc:title></dc:title>
  </cc:Work>
</rdf:RDF>
</metadata>
  <rect
     style="fill:#ffffff;stroke-width:0.75"
     id="rect32"
     width="256"
     height="256"
     x="0"
     y="0" />
  <g
     transform="translate(0.000000,256.000000) scale(0.100000,-0.100000)"
     id="g14"
     stroke="none"
     fill="#000000">
    <path
       d="M0 1280 l0 -1280 1280 0 1280 0 0 994 0 995 -37 4 -38 4 38 1 37 2 0 280 0 280 -1280 0 -1280 0 0 -1280z m185 1040 l0 -95 -60 0 -60 0 -3 84 c-2 46 0 91 2 98 4 10 21 13 63 11 l58 -3 0 -95z m330 0 l0 -95 -60 0 -60 0 -3 84 c-2 46 0 91 2 98 4 10 21 13 63 11 l58 -3 0 -95z m330 0 l0 -95 -60 0 -60 0 -3 84 c-2 46 0 91 2 98 4 10 21 13 63 11 l58 -3 0 -95z m330 0 l0 -95 -60 0 -60 0 -3 84 c-2 46 0 91 2 98 4 10 21 13 63 11 l58 -3 0 -95z m330 0 l0 -95 -60 0 -60 0 -3 84 c-2 46 0 91 2 98 4 10 21 13 63 11 l58 -3 0 -95z m330 0 l0 -95 -60 0 -60 0 -3 84 c-2 46 0 91 2 98 4 10 21 13 63 11 l58 -3 0 -95z m330 0 l0 -95 -60 0 -60 0 -3 84 c-2 46 0 91 2 98 4 10 21 13 63 11 l58 -3 0 -95z m330 0 l0 -95 -60 0 -60 0 -3 84 c-2 46 0 91 2 98 4 10 21 13 63 11 l58 -3 0 -95z m-2264 -222 c34 -39 77 -93 97 -120 26 -38 37 -46 44 -36 7 10 8 8 4 -4 -3 -12 18 -48 63 -109 67 -89 118 -169 107 -169 -3 0 -38 44 -78 98 -39 53 -116 142 -172 197 -55 55 -93 95 -85 89 8 -6 34 -26 59 -44 25 -19 38 -25 29 -15 -9 11 -38 48 -65 81 -27 34 -52 61 -55 60 -11 -2 -39 26 -33 35 11 18 24 8 85 -63z m1889 20 c-17 -29 -58 -104 -91 -166 -67 -123 -90 -144 -40 -35 36 80 13 55 -30 -32 -17 -33 -35 -64 -41 -70 -24 -23 68 143 110 200 26 34 59 83 74 108 15 26 32 47 38 47 6 0 -3 -24 -20 -52z m71 15 c-12 -20 -14 -14 -5 12 4 9 9 14 11 11 3 -2 0 -13 -6 -23z m-40 -17 c-6 -14 -15 -26 -21 -26 -6 0 -4 13 5 31 19 36 30 33 16 -5z m-1961 -24 c0 -15 -2 -15 -10 -2 -13 20 -13 33 0 25 6 -3 10 -14 10 -23z m1697 -14 c-3 -7 -5 -2 -5 12 0 14 2 19 5 13 2 -7 2 -19 0 -25z m-1807 12 c0 -5 -2 -10 -4 -10 -3 0 -8 5 -11 10 -3 6 -1 10 4 10 6 0 11 -4 11 -10z m45 -31 c11 -17 -1 -21 -15 -4 -8 9 -8 15 -2 15 6 0 14 -5 17 -11z m2005 2 c0 -6 -4 -13 -10 -16 -5 -3 -10 1 -10 9 0 9 5 16 10 16 6 0 10 -4 10 -9z m55 -7 c-9 -9 -19 -13 -23 -10 -3 4 0 11 8 16 24 15 33 11 15 -6z m-308 -26 c-3 -7 -5 -2 -5 12 0 14 2 19 5 13 2 -7 2 -19 0 -25z m-1680 -137 c90 -79 112 -94 97 -68 -4 6 2 4 14 -7 12 -10 19 -23 16 -28 -3 -5 22 -35 55 -68 34 -32 60 -63 59 -68 -2 -5 23 -31 55 -57 32 -26 55 -50 52 -53 -3 -3 -22 10 -43 30 -20 19 -63 54 -94 78 -62 45 -80 66 -25 29 23 -16 17 -7 -22 34 -30 31 -56 55 -59 53 -2 -2 -24 19 -50 46 -53 57 -163 144 -175 140 -5 -1 -6 1 -3 6 2 4 -11 18 -30 31 -19 13 -34 27 -34 32 0 16 95 -50 187 -130z m1663 16 c-17 -96 -24 -76 -9 25 7 45 15 74 17 63 2 -11 -1 -50 -8 -88z m580 73 c-14 -4 -34 -8 -45 -8 -16 0 -15 2 5 8 14 4 34 8 45 8 16 0 15 -2 -5 -8z m-128 -40 c-35 -16 -61 -34 -57 -40 4 -6 -1 -7 -11 -3 -15 6 -15 7 2 21 26 20 96 52 114 52 8 0 -13 -13 -48 -30z m-2158 -51 c20 -18 0 -17 -34 2 -35 19 -35 19 -5 13 17 -4 34 -10 39 -15z m2056 -2 c0 -3 -118 -100 -159 -131 -12 -9 -12 -8 -2 9 21 32 161 139 161 122z m-2014 -38 c19 -22 19 -22 -3 -10 -13 6 -23 16 -23 21 0 15 5 12 26 -11z m1016 -169 c5 11 7 8 7 -7 1 -13 7 -40 15 -60 18 -49 30 -114 16 -93 -7 11 -9 2 -8 -31 0 -25 -4 -54 -9 -65 -5 -10 -9 -36 -8 -56 1 -21 -2 -38 -7 -38 -4 0 -8 22 -8 48 0 26 -4 52 -8 58 -5 5 -17 39 -27 76 -9 37 -20 66 -24 64 -3 -2 -7 12 -8 31 -2 48 10 31 32 -42 10 -33 24 -69 31 -80 14 -19 14 -19 14 4 0 14 -7 32 -15 41 -12 13 -13 24 -6 42 5 15 6 30 0 39 -5 8 -6 22 -3 33 4 12 2 16 -5 12 -7 -5 -11 6 -11 33 0 22 -4 51 -9 64 -5 13 -7 44 -3 68 6 41 7 38 22 -56 9 -55 19 -93 22 -85z m68 75 l-7 -100 -1 96 c-1 53 1 99 5 102 10 10 10 9 3 -98z m-32 30 c0 -16 -2 -15 -8 5 -11 34 -11 60 0 35 5 -11 8 -29 8 -40z m-31 -32 c-3 -10 -5 -2 -5 17 0 19 2 27 5 18 2 -10 2 -26 0 -35z m91 -38 l0 -30 -8 30 c-4 17 -8 41 -8 55 l0 25 8 -25 c4 -14 8 -38 8 -55z m45 5 c3 -41 2 -54 -3 -35 -8 31 -13 112 -6 104 2 -2 6 -33 9 -69z m-1186 54 c-3 -3 -12 -4 -19 -1 -8 3 -5 6 6 6 11 1 17 -2 13 -5z m101 -29 c28 -13 52 -26 52 -29 0 -3 -24 5 -52 18 -29 13 -60 26 -68 29 -13 5 -13 5 0 6 8 0 39 -10 68 -24z m992 5 c0 -5 -4 -10 -10 -10 -5 0 -10 5 -10 10 0 6 5 10 10 10 6 0 10 -4 10 -10z m-181 -88 c-1 -33 -2 -34 -9 -12 -12 36 -12 62 0 55 6 -3 10 -23 9 -43z m-50 -32 c0 -8 -7 1 -14 20 -18 46 -17 64 0 25 8 -16 14 -37 14 -45z m296 -47 c5 -114 6 -118 16 -58 16 91 27 132 28 105 0 -14 -4 -44 -9 -67 -7 -28 -7 -66 0 -110 6 -38 13 -88 17 -112 4 -32 3 -42 -5 -37 -8 5 -12 -2 -12 -21 0 -20 3 -24 9 -14 6 9 9 -7 10 -44 0 -39 11 -84 32 -142 24 -63 29 -87 21 -95 -9 -9 -12 -6 -12 13 0 14 -3 29 -7 33 -4 4 -15 30 -24 59 l-17 52 6 -55 c2 -30 9 -63 13 -72 15 -28 11 -42 -6 -28 -14 12 -15 10 -11 -13 3 -15 7 -35 9 -45 15 -54 17 -73 7 -67 -5 3 -10 16 -10 29 0 12 -5 27 -10 32 -6 6 -16 42 -21 80 -6 38 -15 76 -21 84 -6 11 -7 6 -3 -15 14 -72 17 -125 7 -125 -7 0 -9 14 -6 38 3 21 2 32 -3 25 -5 -7 -9 4 -9 29 -1 36 -15 57 -36 58 -5 0 -8 -16 -8 -35 0 -62 -17 -37 -25 38 -5 39 -7 77 -6 82 2 6 4 58 5 117 2 115 10 144 21 79 4 -23 11 -41 17 -41 10 0 4 245 -8 295 l-4 20 9 -20 c6 -11 13 -42 18 -70 8 -49 8 -48 11 34 2 46 5 81 8 78 3 -3 7 -45 9 -94z m-1189 47 c69 -19 298 -119 290 -127 -2 -3 -59 18 -125 46 -66 28 -125 51 -131 51 -6 0 -36 9 -67 20 -40 14 -59 17 -64 9 -9 -15 -29 -3 -29 17 0 16 6 15 126 -16z m1261 -12 c-3 -7 -5 -2 -5 12 0 14 2 19 5 13 2 -7 2 -19 0 -25z m-317 -53 c0 -5 -5 -3 -10 5 -5 8 -10 20 -10 25 0 6 5 3 10 -5 5 -8 10 -19 10 -25z m306 8 c-10 -10 -19 5 -10 18 6 11 8 11 12 0 2 -7 1 -15 -2 -18z m-218 -139 c0 -41 -4 -61 -9 -53 -7 12 -9 12 -9 0 0 -8 -3 -12 -6 -9 -5 5 15 128 21 128 1 0 3 -30 3 -66z m1382 -37 c0 -97 -2 -106 -27 -138 -38 -49 -122 -115 -174 -137 -51 -22 -185 -24 -198 -4 -4 7 -15 10 -25 6 -12 -5 -19 0 -23 16 -4 16 -8 18 -14 9 -11 -18 -57 6 -55 29 0 9 -9 18 -23 22 -25 6 -42 30 -22 30 6 0 11 -5 11 -12 0 -6 3 -8 6 -5 4 4 1 14 -7 23 -12 14 -7 22 36 60 53 46 64 51 82 33 8 -8 11 -6 10 7 -2 14 6 20 26 22 15 2 25 8 22 13 -12 18 40 8 65 -12 14 -11 20 -18 14 -15 -7 3 -17 -1 -24 -9 -16 -19 -34 -19 -26 0 3 9 0 15 -8 15 -18 0 -23 -15 -18 -51 3 -21 11 -29 33 -34 16 -4 29 -11 29 -17 0 -6 6 -6 15 2 8 7 22 9 31 6 11 -4 15 -2 11 7 -4 10 4 14 24 15 16 0 38 4 49 7 12 4 20 2 20 -6 0 -27 29 14 35 51 4 26 13 41 26 45 10 4 19 12 19 18 0 7 9 20 20 30 12 10 18 22 15 27 -3 6 4 10 17 10 19 0 20 2 8 10 -13 9 -13 11 0 20 8 5 16 10 18 10 1 0 2 -47 2 -103z m-1163 61 c-3 -8 -6 -5 -6 6 -1 11 2 17 5 13 3 -3 4 -12 1 -19z m863 12 c0 -5 -5 -10 -11 -10 -5 0 -7 5 -4 10 3 6 8 10 11 10 2 0 4 -4 4 -10z m-973 -42 c-3 -7 -5 -2 -5 12 0 14 2 19 5 13 2 -7 2 -19 0 -25z m130 -55 c-3 -10 -5 -4 -5 12 0 17 2 24 5 18 2 -7 2 -21 0 -30z m28 -133 l5 -35 -15 40 c-14 38 -15 38 -10 7 3 -21 1 -31 -6 -27 -5 4 -8 25 -5 48 2 23 5 51 6 62 2 21 16 -33 25 -95z m24 50 c0 -13 -1 -13 -8 0 -5 8 -12 26 -15 40 l-7 25 15 -25 c9 -14 15 -32 15 -40z m821 46 c0 -2 -8 -10 -17 -17 -16 -13 -17 -12 -4 4 13 16 21 21 21 13z m-1040 -46 c0 -32 -14 -40 -24 -14 -3 8 0 21 7 29 17 19 17 19 17 -15z m-86 -5 c-4 -8 -8 -15 -10 -15 -2 0 -4 7 -4 15 0 8 4 15 10 15 5 0 7 -7 4 -15z m28 -102 c-1 -63 1 -82 8 -65 16 39 19 24 4 -25 -8 -25 -16 -48 -18 -50 -2 -3 -5 51 -5 118 -1 68 1 120 5 116 4 -3 6 -46 6 -94z m285 35 c-3 -8 -6 -5 -6 6 -1 11 2 17 5 13 3 -3 4 -12 1 -19z m-50 -40 c-3 -8 -6 -5 -6 6 -1 11 2 17 5 13 3 -3 4 -12 1 -19z m574 -14 c13 -14 50 -41 81 -61 55 -33 76 -52 43 -40 -8 4 -17 2 -20 -3 -3 -5 -19 -7 -34 -4 -16 3 -38 1 -50 -5 -17 -10 -25 -7 -51 15 -32 29 -39 68 -20 105 14 25 22 24 51 -7z m-548 -84 c8 -33 11 -60 6 -60 -5 0 -9 8 -9 19 0 10 -7 37 -15 60 -8 22 -10 41 -6 41 5 0 15 -27 24 -60z m-1294 3 c-21 -28 -33 -33 -41 -20 -4 7 2 17 15 24 31 18 42 16 26 -4z m21 -48 c-12 -14 -7 -15 49 -12 58 4 61 3 55 -16 -4 -13 -2 -17 5 -13 12 8 29 -6 56 -47 10 -16 21 -25 24 -20 8 11 62 12 55 2 -3 -5 2 -9 10 -9 9 0 16 8 17 18 0 10 3 12 6 5 2 -7 9 -13 15 -13 6 0 8 7 4 15 -4 13 -2 14 14 5 15 -8 26 -7 44 6 14 8 30 13 36 9 5 -3 10 -2 10 4 0 5 -5 13 -11 17 -15 9 9 24 38 24 36 0 111 -37 124 -62 6 -13 8 -20 5 -16 -11 9 -48 -31 -40 -43 3 -6 -3 -13 -15 -16 -11 -3 -18 -10 -14 -16 4 -6 -3 -8 -21 -3 -19 5 -26 3 -26 -9 0 -8 -11 -17 -25 -21 -14 -3 -25 -10 -25 -15 0 -5 -7 -9 -15 -9 -8 0 -15 -4 -15 -10 0 -5 -7 -10 -15 -10 -8 0 -15 5 -15 10 0 14 -27 13 -32 -1 -6 -17 -108 -1 -108 16 0 8 -10 17 -22 21 -31 9 -127 70 -161 103 -59 54 -71 116 -24 123 29 5 32 2 17 -17z m1061 -45 c7 13 9 12 9 -2 0 -10 -7 -18 -15 -18 -11 0 -15 11 -13 48 l1 47 4 -45 c3 -31 7 -40 14 -30z m-674 34 c2 -7 -5 -10 -20 -7 -14 3 -31 -2 -40 -11 -18 -18 -27 -20 -27 -7 0 5 9 13 20 16 11 4 17 11 14 16 -4 7 5 9 22 7 15 -2 29 -8 31 -14z m903 -75 c0 -14 -17 -10 -23 5 -4 10 -1 13 9 9 7 -3 14 -9 14 -14z m21 -36 c13 -16 12 -17 -3 -4 -17 13 -22 21 -14 21 2 0 10 -8 17 -17z m-174 -25 c-3 -8 -6 -5 -6 6 -1 11 2 17 5 13 3 -3 4 -12 1 -19z m-509 -23 c2 -19 -2 -35 -8 -35 -5 0 -10 5 -10 11 0 8 -6 7 -17 -2 -15 -13 -15 -12 -3 11 12 23 30 50 34 50 1 0 3 -16 4 -35z m-133 -55 c-3 -5 -13 -10 -21 -10 -8 0 -12 5 -9 10 3 6 13 10 21 10 8 0 12 -4 9 -10z m-480 -570 l0 -95 -60 0 -60 0 -3 84 c-2 46 0 91 2 98 4 10 21 13 63 11 l58 -3 0 -95z m330 0 l0 -95 -60 0 -60 0 -3 84 c-2 46 0 91 2 98 4 10 21 13 63 11 l58 -3 0 -95z m330 0 l0 -95 -60 0 -60 0 -3 84 c-2 46 0 91 2 98 4 10 21 13 63 11 l58 -3 0 -95z m330 0 l0 -95 -60 0 -60 0 -3 84 c-2 46 0 91 2 98 4 10 21 13 63 11 l58 -3 0 -95z m330 0 l0 -95 -60 0 -60 0 -3 84 c-2 46 0 91 2 98 4 10 21 13 63 11 l58 -3 0 -95z m330 0 l0 -95 -60 0 -60 0 -3 84 c-2 46 0 91 2 98 4 10 21 13 63 11 l58 -3 0 -95z m330 0 l0 -95 -60 0 -60 0 -3 84 c-2 46 0 91 2 98 4 10 21 13 63 11 l58 -3 0 -95z m330 0 l0 -95 -60 0 -60 0 -3 84 c-2 46 0 91 2 98 4 10 21 13 63 11 l58 -3 0 -95z"
       id="path4" />
    <path
       d="M1312 1370 c0 -14 2 -19 5 -12 2 6 2 18 0 25 -3 6 -5 1 -5 -13z"
       id="path6" />
    <path
       d="M1286 1287 c3 -10 9 -15 12 -12 3 3 0 11 -7 18 -10 9 -11 8 -5 -6z"
       id="path8" />
    <path
       d="M1257 1167 c-4 -10 -7 -28 -6 -40 0 -21 1 -21 10 2 5 14 8 32 7 40 -3 13 -5 13 -11 -2z"
       id="path10" />
    <path
       d="M2140 1320 c0 -11 2 -20 5 -20 2 0 9 9 15 20 9 16 8 20 -5 20 -8 0 -15 -9 -15 -20z"
       id="path12" />
  </g>
  <path
     style="fill:#decd87;stroke-width:0.51135403"
     d="m 289.34375,193.17372 c -0.98436,-0.27984 -2.15302,-0.83436 -2.59703,-1.23226 -0.44403,-0.39792 -1.84725,-0.72347 -3.1184,-0.72347 -2.22147,0 -2.34226,-0.0793 -3.11456,-2.04542 -0.83639,-2.12923 -1.59021,-2.58958 -2.09336,-1.27838 -0.85952,2.23987 -6.97404,-0.89 -6.97404,-3.56984 0,-1.39781 -0.84822,-2.15743 -4.29325,-3.84479 -2.49153,-1.22035 -3.34011,-2.48387 -1.97398,-2.93924 0.34982,-0.11661 0.86187,0.38196 1.13789,1.10793 0.27601,0.72597 0.73764,1.31995 1.02585,1.31995 0.83814,0 0.60085,-1.66296 -0.46883,-3.28562 -0.86558,-1.31304 -0.90215,-1.65824 -0.29925,-2.82412 1.29298,-2.50035 11.32033,-10.76494 13.061,-10.76494 0.48236,0 1.46209,0.46022 2.17718,1.02271 1.71212,1.34675 1.90589,1.29847 1.90589,-0.47483 0,-1.81261 1.17563,-3.10465 2.82491,-3.10465 1.87614,0 3.82269,-1.08334 3.82269,-2.1275 0,-1.12611 0.6242,-1.16554 3.71685,-0.23479 3.47205,1.04494 7.06954,3.89635 4.91584,3.89635 -0.31443,0 -1.35793,0.69033 -2.31889,1.53406 -2.22419,1.95287 -2.85302,1.9358 -2.64502,-0.0718 0.31854,-3.07458 -2.79322,-3.35005 -3.86597,-0.34222 -0.67477,1.89195 0.0843,6.74764 1.25056,7.99945 0.54791,0.58812 1.94216,1.32402 3.09832,1.63534 1.15617,0.31133 2.65539,1.11931 3.33161,1.79553 l 1.22949,1.22949 1.99538,-1.04005 c 1.50269,-0.78325 2.46528,-0.9519 3.89843,-0.68304 1.84258,0.34567 1.89272,0.31584 1.57785,-0.93869 -0.36891,-1.46987 0.29128,-1.90715 2.90531,-1.92434 0.89104,-0.006 3.05225,-0.3108 4.80269,-0.67763 3.40137,-0.71281 3.84986,-0.62203 4.41051,0.89272 0.34331,0.92757 0.41649,0.91799 1.61937,-0.21206 1.31773,-1.23795 2.9357,-5.0436 3.52313,-8.28683 0.38621,-2.13226 2.36469,-4.77442 3.95253,-5.27837 0.57581,-0.18276 1.36575,-1.09534 1.75542,-2.02795 0.38967,-0.93262 1.63426,-2.76531 2.76577,-4.07266 1.1315,-1.30735 2.05727,-2.7986 2.05727,-3.31389 0,-1.03234 0.96262,-1.55767 2.85427,-1.55767 1.54854,0 1.58299,-0.71652 0.086,-1.78901 l -1.15054,-0.82429 1.53406,-1.24612 1.53406,-1.24613 0.40239,5.23738 c 0.22131,2.88056 0.26736,8.68903 0.10234,12.9077 -0.37909,9.69105 -1.0413,11.27657 -7.358,17.61692 -8.99997,9.03368 -17.52847,14.29794 -25.30118,15.61728 -5.05737,0.85843 -14.9466,0.95329 -17.70257,0.1698 z m -1.24467,-27.58863 c 1.06697,-2.06328 0.92841,-3.00293 -0.4428,-3.00293 -0.64686,0 -1.45224,0.27613 -1.78974,0.61363 -0.64667,0.64667 -0.85131,4.09177 -0.27716,4.66593 0.46898,0.46898 1.63851,-0.59194 2.5097,-2.27663 z"
     id="path22"
     inkscape:connector-curvature="0"
     transform="scale(0.74999998)" />
  <path
     style="fill:#e3dedb;stroke-width:0.51135403"
     d="m 67.113389,235.96147 c -1.063012,-1.62236 -3.34653,-1.70962 -4.769487,-0.18226 -0.931586,0.99994 -1.39326,1.0722 -5.261299,0.82345 -4.995012,-0.32122 -8.475145,-1.55981 -9.115574,-3.24427 -0.305987,-0.8048 -1.841516,-1.84625 -4.81374,-3.26484 -2.400436,-1.14568 -7.15938,-3.95131 -10.57543,-6.23474 -9.858167,-6.5896 -14.874968,-12.19738 -15.592007,-17.42875 -0.279791,-2.0413 -0.159753,-2.50877 0.921981,-3.5905 1.144987,-1.14499 4.787757,-2.30899 5.378206,-1.71854 0.139286,0.13928 -0.159767,0.95243 -0.664564,1.80698 -0.504797,0.85455 -0.737343,1.73339 -0.516769,1.95298 0.220574,0.21959 3.545063,0.39925 7.387753,0.39925 h 6.986711 l -0.176073,1.98983 c -0.163408,1.84671 -0.0931,1.96813 0.977542,1.68815 1.736059,-0.45399 2.711212,0.30528 6.086157,4.7388 1.696093,2.22808 3.285959,4.17599 3.533036,4.32869 0.247076,0.1527 1.160892,-0.0774 2.030703,-0.5113 2.005269,-1.00036 5.957381,-0.80532 5.957381,0.294 0,0.45492 0.567151,0.83238 1.393812,0.92764 1.099725,0.12672 1.598425,-0.17585 2.363559,-1.43401 0.776566,-1.27697 1.033246,-1.42915 1.28851,-0.76394 0.194886,0.50786 0.766779,0.76707 1.471597,0.66698 0.921875,-0.1309 1.123344,-0.44542 1.00564,-1.56992 -0.172645,-1.64939 -0.250857,-1.62719 2.169641,-0.61584 1.835606,0.76697 1.988922,0.74301 5.173213,-0.80827 2.467427,-1.20205 3.662819,-1.51492 4.818382,-1.26111 1.29706,0.28488 1.536839,0.1824 1.536839,-0.65683 0,-0.54691 -0.468789,-1.59035 -1.041746,-2.31875 l -1.041751,-1.32437 1.648314,-0.85237 c 3.710779,-1.91892 13.341933,0.87087 18.430402,5.33861 2.48291,2.18002 2.704598,3.29108 0.822866,4.12402 -1.742362,0.77124 -4.129378,4.12171 -3.895127,5.46728 0.110616,0.63536 -0.445717,1.2597 -1.75421,1.96866 -1.131335,0.61297 -1.91676,1.41981 -1.917578,1.96987 -0.001,0.82872 -0.306291,0.89357 -2.760857,0.58689 -2.671958,-0.33383 -2.781428,-0.29851 -3.45164,1.11376 -0.445711,0.9392 -1.673841,1.93692 -3.449226,2.8021 -1.516385,0.73897 -2.955938,1.69896 -3.199011,2.1333 -0.243072,0.43434 -1.113979,0.93731 -1.935362,1.11772 -0.821378,0.1804 -1.860802,0.88871 -2.309832,1.57402 -1.043495,1.59258 -2.083277,1.58186 -3.140962,-0.0324 z"
     id="path24"
     inkscape:connector-curvature="0"
     transform="scale(0.74999998)" />
  <path
     style="fill:#e3dedb;stroke-width:0.51135403"
     d="m 261.98493,199.29161 c -2.91383,-2.56486 -4.31858,-5.39427 -4.3339,-8.72924 -0.0159,-3.45595 1.92444,-7.52604 3.58784,-7.52604 0.25184,0 2.13381,1.51292 4.18215,3.36204 2.04833,1.84913 6.71567,5.33848 10.37185,7.75413 7.86004,5.19314 8.20554,5.48207 6.08272,5.08674 -1.03112,-0.19202 -1.99073,-0.0133 -2.73773,0.50994 -0.86747,0.6076 -1.90551,0.7371 -4.22355,0.52691 -1.89783,-0.17209 -4.13636,-0.002 -5.8524,0.44515 -3.98004,1.03667 -4.36301,0.9593 -7.07698,-1.42963 z"
     id="path26"
     inkscape:connector-curvature="0"
     transform="scale(0.74999998)" />
  <path
     style="fill:#decd87;stroke-width:0.51135403"
     d="m 104.06529,228.9812 c -0.27636,-1.0568 -0.33853,-1.06631 -1.59371,-0.24388 -0.71837,0.47069 -1.30612,0.66438 -1.30612,0.43042 0,-0.4698 3.39197,-6.2411 4.08072,-6.94319 0.56161,-0.57248 1.24736,4.8865 0.82516,6.56869 -0.39537,1.5753 -1.61341,1.68943 -2.00605,0.18796 z"
     id="path28"
     inkscape:connector-curvature="0"
     transform="scale(0.74999998)" />
  <path
     style="fill:#decd87;stroke-width:0.51135403"
     d="m 67.287203,235.92319 c -1.321685,-1.52008 -3.068011,-1.58217 -5.038382,-0.17914 -1.268725,0.90341 -2.001845,1.02133 -4.936802,0.79406 -1.895746,-0.1468 -4.194667,-0.49312 -5.108712,-0.76959 -0.914045,-0.27648 -1.661901,-0.38095 -1.661901,-0.23215 0,0.14879 -1.073405,-0.78771 -2.385344,-2.08111 -1.311939,-1.29341 -2.555434,-2.35165 -2.763323,-2.35165 -0.207889,0 -1.780741,-0.79289 -3.495228,-1.76198 -1.714486,-0.96908 -3.117248,-1.66166 -3.117248,-1.53906 0,0.1226 -0.402691,-0.12189 -0.89487,-0.54331 -0.492178,-0.42141 -1.099251,-0.74467 -1.349052,-0.71835 -0.249801,0.0263 -0.594965,-0.15956 -0.767032,-0.41308 -0.354542,-0.52237 -4.960569,-3.71724 -5.359123,-3.71724 -0.142902,0 -1.015635,-0.69033 -1.939405,-1.53406 -0.923771,-0.84374 -1.954289,-1.53407 -2.290041,-1.53407 -0.335751,0 -0.68716,-0.21546 -0.780908,-0.47881 -0.09375,-0.26334 -1.558646,-1.93163 -3.255329,-3.70731 -3.327138,-3.48205 -4.770453,-6.15051 -5.051542,-9.33948 -0.140122,-1.5897 0.05401,-2.19766 0.911054,-2.85325 1.209011,-0.92481 2.645543,-1.57748 4.086208,-1.8565 0.95088,-0.18416 0.963882,0.63929 0.04779,3.02659 -0.321038,0.83661 3.801145,1.39212 10.378163,1.39857 l 3.707317,0.004 v 1.72582 c 0,1.49813 0.167988,1.72582 1.273282,1.72582 1.317708,0 5.254204,2.98925 5.331036,4.04822 0.0238,0.32812 0.225397,0.67329 0.447979,0.76704 0.222582,0.0937 1.055276,1.03336 1.850431,2.08802 1.386648,1.83921 3.416271,2.57207 4.092587,1.47777 0.466738,-0.7552 4.823578,-0.30109 5.827434,0.60739 1.338123,1.21098 2.495155,1.06176 3.485378,-0.44951 0.597722,-0.91224 1.016534,-1.14294 1.392444,-0.76703 1.041295,1.04129 2.303629,0.5978 2.472359,-0.86862 0.110362,-0.95915 0.405661,-1.33956 0.928835,-1.19655 2.542657,0.69503 4.275722,0.58308 6.395014,-0.41311 1.266614,-0.59537 3.222257,-1.11852 4.345886,-1.16255 2.348782,-0.092 2.606366,-0.82455 1.005577,-2.85963 -1.224974,-1.5573 -0.866274,-2.07433 1.869726,-2.69499 1.819576,-0.41278 3.275084,-0.22568 9.983916,1.28337 0.830808,0.18688 2.800124,1.20256 4.746021,2.44778 1.728811,1.1063 4.380519,3.89711 4.380519,4.61031 0,0.37835 -0.688794,1.19716 -1.530651,1.81958 -1.656353,1.22459 -3.085935,3.1444 -3.268688,4.38957 -0.06297,0.42904 -1.137389,1.75149 -2.387599,2.93878 -2.063763,1.95991 -2.485375,2.14606 -4.577902,2.02122 -2.034346,-0.12137 -2.435181,0.0389 -3.415983,1.36546 -0.61115,0.82663 -2.432087,2.28184 -4.046524,3.2338 -5.702247,3.36237 -6.594918,3.97587 -6.48648,4.45792 0.258561,1.14941 -2.004661,0.99467 -3.050887,-0.20859 z"
     id="path30"
     inkscape:connector-curvature="0"
     transform="scale(0.74999998)" />
  <path
     style="fill:#e3dedb;stroke-width:0.51135403"
     d="m 104.3952,229.10964 c -0.31354,-1.19899 -1.17731,-1.38798 -2.10476,-0.46053 -1.05497,1.05496 -0.6757,-0.12496 0.95796,-2.98031 0.86438,-1.51077 1.78481,-2.74686 2.04542,-2.74686 0.66331,0 0.59565,6.51196 -0.072,6.92455 -0.30052,0.18574 -0.67199,-0.14537 -0.82667,-0.73685 z"
     id="path34"
     inkscape:connector-curvature="0"
     transform="scale(0.74999998)" />
  <path
     style="fill:#e3dedb;stroke-width:0.51135403"
     d="m 265.59953,201.49967 c -0.19238,-0.31128 -0.6994,-0.56595 -1.12672,-0.56595 -0.93352,0 -4.53073,-3.64489 -5.55829,-5.63198 -1.28816,-2.49103 -1.46324,-5.32109 -0.51557,-8.33397 1.0884,-3.46032 2.77332,-4.68174 4.20974,-3.0517 2.02902,2.30249 16.45314,12.92682 17.55012,12.92682 0.27056,0 0.49192,0.2301 0.49192,0.51135 0,0.28124 0.32055,0.51135 0.71232,0.51135 0.39178,0 0.85461,0.37079 1.02851,0.82397 0.20609,0.53705 0.0916,0.73851 -0.32881,0.57855 -0.35474,-0.13498 -1.22026,-0.008 -1.92337,0.2826 -0.70311,0.29042 -2.88915,0.58506 -4.85787,0.65478 -5.05114,0.17886 -8.61818,0.70481 -9.00301,1.32747 -0.22441,0.3631 -0.44054,0.3525 -0.67897,-0.0333 z"
     id="path36"
     inkscape:connector-curvature="0"
     transform="scale(0.74999998)" />
  <path
     style="fill:#e3dedb;stroke-width:0.18079096"
     d="m 62.924749,208.96756 c -0.06629,-0.0663 -0.120527,-0.37649 -0.120527,-0.68933 0,-0.7724 0.635345,-1.33067 2.538937,-2.23092 1.692164,-0.80027 2.104085,-1.26953 1.920435,-2.18778 -0.142456,-0.71228 0.226036,-0.91923 1.630438,-0.91566 2.218091,0.006 5.007138,1.02449 5.229476,1.91036 0.22306,0.88874 0.05559,0.92676 -3.454879,0.78415 -1.871022,-0.076 -2.950818,0.28707 -4.353223,1.46377 -0.588778,0.49401 -1.387797,1.14295 -1.775598,1.44208 -0.66584,0.51359 -1.346416,0.69198 -1.615059,0.42333 z"
     id="path38"
     inkscape:connector-curvature="0"
     transform="scale(0.74999998)" />
  <path
     style="fill:#e3dedb;stroke-width:0.18079096"
     d="m 14.795589,199.93175 c -0.963016,-1.03911 -0.320754,-2.24876 1.890137,-3.5599 1.417086,-0.84039 3.140368,-1.56624 3.718499,-1.56624 0.547797,0 0.274857,0.88346 -0.652948,2.11348 -2.413613,3.19982 -3.928659,4.12084 -4.955688,3.01266 z"
     id="path40"
     inkscape:connector-curvature="0"
     transform="scale(0.74999998)" />
  <path
     style="fill:#e3dedb;stroke-width:0.18079096"
     d="m 265.55224,201.52475 c -0.0945,-0.083 -0.53785,-0.28612 -0.98531,-0.45139 -0.93751,-0.34627 -3.07744,-2.13437 -4.26871,-3.56688 -1.06018,-1.27488 -1.99136,-3.11451 -2.35149,-4.64559 -0.78719,-3.34674 0.63988,-8.43569 2.67162,-9.52704 l 0.65738,-0.35311 0.63147,0.44351 c 0.34731,0.24393 1.48324,1.17571 2.52429,2.07062 1.04105,0.89492 2.57537,2.16683 3.40961,2.82647 2.54672,2.01374 8.5451,6.28288 8.6964,6.18937 0.0783,-0.0484 0.14243,-0.0121 0.14243,0.0806 0,0.22111 2.83791,2.08243 3.17502,2.08243 0.143,0 0.26001,0.0678 0.26001,0.15066 0,0.0829 0.12203,0.15066 0.27118,0.15066 0.14916,0 0.27119,0.12618 0.27119,0.28041 0,0.15423 0.26441,0.39193 0.58757,0.52824 0.32316,0.13631 0.86413,0.535 1.20214,0.88599 l 0.61456,0.63816 -1.24733,-0.014 c -0.93049,-0.0105 -1.5806,0.10884 -2.55933,0.46958 -1.22431,0.45126 -1.55058,0.48815 -4.88136,0.55191 -3.6554,0.07 -6.65035,0.4878 -7.89092,1.10085 -0.61007,0.30148 -0.69899,0.31185 -0.93042,0.1085 z"
     id="path42"
     inkscape:connector-curvature="0"
     transform="scale(0.74999998)" />
  <path
     style="fill:#e3dedb;stroke-width:0.09039548"
     d="m 298.02901,146.36442 c -0.23689,-0.30115 -0.23563,-0.4878 0.006,-0.96316 0.39954,-0.78448 0.97814,-1.32974 1.41105,-1.32974 0.45841,0 0.64998,1.34288 0.27082,1.89836 -0.4294,0.62907 -1.33704,0.84117 -1.68835,0.39454 z"
     id="path44"
     inkscape:connector-curvature="0"
     transform="scale(0.74999998)" />
  <path
     style="fill:#e3dedb;stroke-width:0.09039548"
     d="m 300.10154,166.53167 c 0,-0.35408 2.60715,-3.32086 3.18195,-3.62088 0.60475,-0.31564 0.86802,0.0345 0.46414,0.61731 -0.4666,0.6733 -3.64609,3.2925 -3.64609,3.00357 z"
     id="path46"
     inkscape:connector-curvature="0"
     transform="scale(0.74999998)" />
  <path
     style="fill:#e3dedb;stroke-width:0.09039548"
     d="m 300.20244,166.33141 c 0.031,-0.087 0.20252,-0.34124 0.38119,-0.56497 0.17866,-0.22373 0.38593,-0.48351 0.46059,-0.57729 0.0747,-0.0938 0.24762,-0.27338 0.38434,-0.39912 0.13672,-0.12574 0.24859,-0.25613 0.24859,-0.28975 0,-0.13219 1.43889,-1.48018 1.73237,-1.62294 0.26001,-0.12647 0.33065,-0.13154 0.42503,-0.0305 0.28654,0.30674 -0.0632,0.81822 -1.26868,1.85533 -0.21535,0.18528 -0.50231,0.43299 -0.6377,0.55048 -0.13538,0.11749 -0.35513,0.29132 -0.48834,0.3863 -0.13321,0.095 -0.31736,0.24387 -0.40922,0.33088 -0.0919,0.087 -0.19111,0.15819 -0.22056,0.15819 -0.0294,0 -0.15697,0.0814 -0.28338,0.18079 -0.28322,0.22278 -0.39839,0.23081 -0.32423,0.0226 z"
     id="path48"
     inkscape:connector-curvature="0"
     transform="scale(0.74999998)" />
  <path
     style="fill:#e3dedb;stroke-width:0.09039548"
     d="m 85.12694,234.48103 c -1.459755,-0.63496 0.221372,-2.39917 2.286186,-2.39917 0.936279,0 1.300212,0.22952 1.300212,0.82001 0,0.29049 -0.06203,0.41683 -0.340769,0.69411 -0.803497,0.79929 -2.425778,1.24167 -3.245629,0.88505 z"
     id="path50"
     inkscape:connector-curvature="0"
     transform="scale(0.74999998)" />
</svg>
