/* XPM */
static char * photofilmstrip_xpm[] = {
"48 48 810 2",
"  	c None",
". 	c #000000",
"+ 	c #FFFFFF",
"@ 	c #ED9C00",
"# 	c #090909",
"$ 	c #161618",
"% 	c #313136",
"& 	c #151616",
"* 	c #0D0D0D",
"= 	c #131314",
"- 	c #232223",
"; 	c #181818",
"> 	c #1A1A1B",
", 	c #1B1B1B",
"' 	c #1F1F21",
") 	c #141415",
"! 	c #151516",
"~ 	c #1E1E1E",
"{ 	c #1E1E1F",
"] 	c #161616",
"^ 	c #2B2A2B",
"/ 	c #373537",
"( 	c #373638",
"_ 	c #171617",
": 	c #1D1B1D",
"< 	c #242224",
"[ 	c #1D1B1C",
"} 	c #0C0C0C",
"| 	c #101010",
"1 	c #0E0E0E",
"2 	c #111111",
"3 	c #202020",
"4 	c #211E1E",
"5 	c #1A1716",
"6 	c #242223",
"7 	c #2C2829",
"8 	c #3B373B",
"9 	c #252020",
"0 	c #1C1A1A",
"a 	c #1E1B1C",
"b 	c #1D1C1C",
"c 	c #272525",
"d 	c #1A1717",
"e 	c #161515",
"f 	c #131313",
"g 	c #0C0C0D",
"h 	c #19191D",
"i 	c #313134",
"j 	c #161615",
"k 	c #0F0F10",
"l 	c #1B1A1B",
"m 	c #212120",
"n 	c #1C1C1C",
"o 	c #191919",
"p 	c #151515",
"q 	c #181719",
"r 	c #202022",
"s 	c #343335",
"t 	c #303031",
"u 	c #171717",
"v 	c #202021",
"w 	c #1A1A1A",
"x 	c #161617",
"y 	c #0A0A0A",
"z 	c #0F0F0F",
"A 	c #0B0B0B",
"B 	c #272727",
"C 	c #2A2726",
"D 	c #221E1D",
"E 	c #242021",
"F 	c #423E42",
"G 	c #312C2B",
"H 	c #2A2321",
"I 	c #24201E",
"J 	c #222121",
"K 	c #2D2B2B",
"L 	c #242122",
"M 	c #1B1B1A",
"N 	c #252424",
"O 	c #1C1C1D",
"P 	c #1F1F20",
"Q 	c #121214",
"R 	c #2C2B31",
"S 	c #2B2B2F",
"T 	c #121211",
"U 	c #0F0E0E",
"V 	c #121212",
"W 	c #181717",
"X 	c #171716",
"Y 	c #2E2F31",
"Z 	c #353536",
"` 	c #232121",
" .	c #232323",
"..	c #2A2A2A",
"+.	c #272423",
"@.	c #2D2727",
"#.	c #393437",
"$.	c #423F40",
"%.	c #312E2C",
"&.	c #282423",
"*.	c #232122",
"=.	c #201E1F",
"-.	c #201E1E",
";.	c #1F1E1E",
">.	c #292928",
",.	c #262628",
"'.	c #19191A",
").	c #242427",
"!.	c #212224",
"~.	c #34333A",
"{.	c #2A282D",
"].	c #1F1F1F",
"^.	c #1D1D1E",
"/.	c #141414",
"(.	c #1A1B1B",
"_.	c #1A1919",
":.	c #131212",
"<.	c #29292C",
"[.	c #3F3D40",
"}.	c #212022",
"|.	c #201F1F",
"1.	c #0B0C0C",
"2.	c #101011",
"3.	c #292728",
"4.	c #23201E",
"5.	c #2B2727",
"6.	c #434144",
"7.	c #302C2C",
"8.	c #322C2C",
"9.	c #252324",
"0.	c #242221",
"a.	c #262525",
"b.	c #1E1D1E",
"c.	c #252525",
"d.	c #212125",
"e.	c #343437",
"f.	c #222226",
"g.	c #3F3E44",
"h.	c #1E1E20",
"i.	c #242425",
"j.	c #111110",
"k.	c #2B2A2E",
"l.	c #3B393F",
"m.	c #1A1A1C",
"n.	c #2D2B2E",
"o.	c #201F22",
"p.	c #100F10",
"q.	c #0D0C0C",
"r.	c #1F1B1C",
"s.	c #3F3E40",
"t.	c #2B2528",
"u.	c #272221",
"v.	c #292423",
"w.	c #2A2828",
"x.	c #2C2728",
"y.	c #232325",
"z.	c #212124",
"A.	c #2C2A2D",
"B.	c #292829",
"C.	c #1B1B1D",
"D.	c #3D3C42",
"E.	c #252428",
"F.	c #222223",
"G.	c #1B1B1E",
"H.	c #4C4D53",
"I.	c #161518",
"J.	c #111010",
"K.	c #29282C",
"L.	c #1D1D1D",
"M.	c #1E1D21",
"N.	c #333036",
"O.	c #2A282B",
"P.	c #242325",
"Q.	c #262629",
"R.	c #080808",
"S.	c #222325",
"T.	c #121111",
"U.	c #232224",
"V.	c #3B383A",
"W.	c #1F1B1A",
"X.	c #221E1E",
"Y.	c #23211F",
"Z.	c #2B292C",
"`.	c #2E2D2F",
" +	c #201F20",
".+	c #1D1C1D",
"++	c #3B3A40",
"@+	c #2E2D30",
"#+	c #1A1819",
"$+	c #29292E",
"%+	c #3C3B41",
"&+	c #2C292F",
"*+	c #232125",
"=+	c #161415",
"-+	c #2C2B2E",
";+	c #4A484E",
">+	c #302F35",
",+	c #27252B",
"'+	c #28282A",
")+	c #0B0B0A",
"!+	c #0F0D0D",
"~+	c #0A0909",
"{+	c #222326",
"]+	c #0E0E0F",
"^+	c #1F1C1B",
"/+	c #1E1C1C",
"(+	c #2F2E30",
"_+	c #2A282A",
":+	c #3E3C40",
"<+	c #2F2F33",
"[+	c #25252A",
"}+	c #0F0F0E",
"|+	c #28272A",
"1+	c #39373D",
"2+	c #1A1A1D",
"3+	c #4B4A4E",
"4+	c #58545D",
"5+	c #595560",
"6+	c #2B2B31",
"7+	c #0C0C0B",
"8+	c #070707",
"9+	c #0F0D0C",
"0+	c #131213",
"a+	c #161717",
"b+	c #242324",
"c+	c #302F31",
"d+	c #211F20",
"e+	c #1D1A19",
"f+	c #151415",
"g+	c #252526",
"h+	c #3B3B40",
"i+	c #353338",
"j+	c #1D1D1C",
"k+	c #3B3B41",
"l+	c #171719",
"m+	c #0E0E0D",
"n+	c #2D2B30",
"o+	c #3B373E",
"p+	c #4C4B52",
"q+	c #5A5861",
"r+	c #6F6B74",
"s+	c #45434D",
"t+	c #1F1E22",
"u+	c #090908",
"v+	c #272729",
"w+	c #161414",
"x+	c #191615",
"y+	c #1B1918",
"z+	c #151312",
"A+	c #181615",
"B+	c #151414",
"C+	c #1B1A1A",
"D+	c #1F1E1F",
"E+	c #1E1E1C",
"F+	c #1F1D1D",
"G+	c #242222",
"H+	c #201F21",
"I+	c #353439",
"J+	c #2E2D32",
"K+	c #141317",
"L+	c #2D2E31",
"M+	c #0A0A0B",
"N+	c #0D0C0B",
"O+	c #55515C",
"P+	c #322F34",
"Q+	c #43424A",
"R+	c #5E5B67",
"S+	c #58565F",
"T+	c #5C5863",
"U+	c #2D2A30",
"V+	c #0A0A09",
"W+	c #0F0E0C",
"X+	c #0B0909",
"Y+	c #0F0E0F",
"Z+	c #1F1F1E",
"`+	c #181718",
" @	c #181817",
".@	c #181715",
"+@	c #181716",
"@@	c #1B1A19",
"#@	c #161514",
"$@	c #171615",
"%@	c #181617",
"&@	c #1F1D1E",
"*@	c #2C2A2B",
"=@	c #333336",
"-@	c #343235",
";@	c #211F1F",
">@	c #191917",
",@	c #141314",
"'@	c #2A2B2D",
")@	c #1C1B1D",
"!@	c #161517",
"~@	c #121213",
"{@	c #09090A",
"]@	c #0B0B09",
"^@	c #0C0B0B",
"/@	c #16151A",
"(@	c #53505C",
"_@	c #3B3942",
":@	c #43424D",
"<@	c #83838A",
"[@	c #52515A",
"}@	c #46414F",
"|@	c #525058",
"1@	c #111112",
"2@	c #0D0C0D",
"3@	c #0C0B0C",
"4@	c #101110",
"5@	c #121112",
"6@	c #191819",
"7@	c #191718",
"8@	c #1E1D1D",
"9@	c #2E2D2E",
"0@	c #2F2E2F",
"a@	c #393839",
"b@	c #343130",
"c@	c #2A2A2D",
"d@	c #29282A",
"e@	c #2B2A2C",
"f@	c #343337",
"g@	c #39383B",
"h@	c #272728",
"i@	c #181819",
"j@	c #0E0D0D",
"k@	c #0C0B0A",
"l@	c #141315",
"m@	c #403E49",
"n@	c #34343B",
"o@	c #60606D",
"p@	c #86868F",
"q@	c #595863",
"r@	c #5E5B6A",
"s@	c #5D5B64",
"t@	c #252426",
"u@	c #282626",
"v@	c #242120",
"w@	c #232222",
"x@	c #2C2A29",
"y@	c #403D38",
"z@	c #5F5742",
"A@	c #262424",
"B@	c #221E20",
"C@	c #2A272A",
"D@	c #2D2D2F",
"E@	c #212021",
"F@	c #100F0E",
"G@	c #191A1A",
"H@	c #080708",
"I@	c #070708",
"J@	c #1F1E23",
"K@	c #3A3942",
"L@	c #56555F",
"M@	c #8D8E94",
"N@	c #706F7D",
"O@	c #84838C",
"P@	c #44424A",
"Q@	c #2A292C",
"R@	c #252425",
"S@	c #28262A",
"T@	c #353438",
"U@	c #3A3A3B",
"V@	c #2E2D26",
"W@	c #464431",
"X@	c #6F6A51",
"Y@	c #968667",
"Z@	c #242426",
"`@	c #1D1E1E",
" #	c #252322",
".#	c #1E1B19",
"+#	c #181616",
"@#	c #37363B",
"##	c #4E4E5A",
"$#	c #91949C",
"%#	c #6B6974",
"&#	c #A2A2A8",
"*#	c #5E5C65",
"=#	c #201E20",
"-#	c #2C2B2F",
";#	c #545459",
">#	c #1F1F1C",
",#	c #505139",
"'#	c #605E48",
")#	c #978E71",
"!#	c #B7A982",
"~#	c #1B1B1C",
"{#	c #1A1818",
"]#	c #151313",
"^#	c #131111",
"/#	c #18181D",
"(#	c #63646F",
"_#	c #7C7D85",
":#	c #63626F",
"<#	c #AAADB6",
"[#	c #65636D",
"}#	c #1D1C1F",
"|#	c #1B1A1C",
"1#	c #404142",
"2#	c #25282D",
"3#	c #22282A",
"4#	c #3B4038",
"5#	c #6C6C4E",
"6#	c #7B795B",
"7#	c #ABA685",
"8#	c #B3A384",
"9#	c #080809",
"0#	c #18181A",
"a#	c #1C1B1E",
"b#	c #42414C",
"c#	c #65646E",
"d#	c #82838F",
"e#	c #A9AAB3",
"f#	c #726F79",
"g#	c #4C4A52",
"h#	c #2F2E2D",
"i#	c #696753",
"j#	c #919068",
"k#	c #636552",
"l#	c #262C2E",
"m#	c #61644D",
"n#	c #807A5E",
"o#	c #929177",
"p#	c #C5BB96",
"q#	c #7C6E5A",
"r#	c #2C2B2D",
"s#	c #29292A",
"t#	c #1C1B1C",
"u#	c #151314",
"v#	c #121011",
"w#	c #060606",
"x#	c #4F4E56",
"y#	c #65646F",
"z#	c #9B9BA5",
"A#	c #ABACB3",
"B#	c #66646F",
"C#	c #6D6A73",
"D#	c #49464C",
"E#	c #242126",
"F#	c #090808",
"G#	c #423E3A",
"H#	c #A6A17F",
"I#	c #A19D79",
"J#	c #8E8965",
"K#	c #828161",
"L#	c #7F7E5B",
"M#	c #827E5D",
"N#	c #8F8C6B",
"O#	c #BAB190",
"P#	c #BAA783",
"Q#	c #3B3230",
"R#	c #2F2D30",
"S#	c #2F2E31",
"T#	c #2A292A",
"U#	c #20201F",
"V#	c #080707",
"W#	c #201F23",
"X#	c #45454B",
"Y#	c #4E4D58",
"Z#	c #9597A0",
"`#	c #BCBDC3",
" $	c #6C6A75",
".$	c #6B6872",
"+$	c #3C3A40",
"@$	c #26242A",
"#$	c #0B0A09",
"$$	c #0B0A0A",
"%$	c #100F0F",
"&$	c #34302C",
"*$	c #A7986D",
"=$	c #C4BB8F",
"-$	c #C0B993",
";$	c #A9A47F",
">$	c #989371",
",$	c #A09D79",
"'$	c #B2A981",
")$	c #BFB589",
"!$	c #C5B289",
"~$	c #5E5048",
"{$	c #333132",
"]$	c #282729",
"^$	c #363235",
"/$	c #38383B",
"($	c #3F3F42",
"_$	c #2D2C2D",
":$	c #282526",
"<$	c #1F1F1D",
"[$	c #161413",
"}$	c #19181B",
"|$	c #2E2C34",
"1$	c #42404B",
"2$	c #45424F",
"3$	c #96989F",
"4$	c #C3C5CD",
"5$	c #727079",
"6$	c #52515B",
"7$	c #0E0C0C",
"8$	c #656369",
"9$	c #85795D",
"0$	c #B4A375",
"a$	c #C2B689",
"b$	c #C8BD90",
"c$	c #C5BB8C",
"d$	c #C2B98B",
"e$	c #B4AA84",
"f$	c #B2A47C",
"g$	c #5A4C3F",
"h$	c #2F2C2D",
"i$	c #2F2D2D",
"j$	c #222222",
"k$	c #4A463E",
"l$	c #393836",
"m$	c #323235",
"n$	c #2F2F30",
"o$	c #2E2E30",
"p$	c #2E2F30",
"q$	c #171616",
"r$	c #080807",
"s$	c #46454B",
"t$	c #383641",
"u$	c #93959E",
"v$	c #B2B4BB",
"w$	c #86868D",
"x$	c #5D5A62",
"y$	c #232126",
"z$	c #0E0D0C",
"A$	c #10100F",
"B$	c #2C2C33",
"C$	c #85848D",
"D$	c #6C665C",
"E$	c #938461",
"F$	c #AE9D72",
"G$	c #B3A87C",
"H$	c #B2A777",
"I$	c #897E5E",
"J$	c #3E352F",
"K$	c #262223",
"L$	c #363637",
"M$	c #433F3B",
"N$	c #8D815F",
"O$	c #6B6753",
"P$	c #414139",
"Q$	c #34342E",
"R$	c #2C2D27",
"S$	c #16181D",
"T$	c #23262B",
"U$	c #272A2B",
"V$	c #1E1F20",
"W$	c #212025",
"X$	c #323236",
"Y$	c #313139",
"Z$	c #4A4A55",
"`$	c #7D7D86",
" %	c #888893",
".%	c #9998A3",
"+%	c #635F6A",
"@%	c #312E35",
"#%	c #19181A",
"$%	c #100E0E",
"%%	c #141413",
"&%	c #2D2C31",
"*%	c #73727E",
"=%	c #94949D",
"-%	c #8B8B9C",
";%	c #515162",
">%	c #474749",
",%	c #433D36",
"'%	c #362F2C",
")%	c #282522",
"!%	c #252323",
"~%	c #3A3A3D",
"{%	c #413F45",
"]%	c #807053",
"^%	c #A39775",
"/%	c #918C6B",
"(%	c #737257",
"_%	c #626147",
":%	c #444639",
"<%	c #4B4D40",
"[%	c #868762",
"}%	c #6E7057",
"|%	c #4C4B3D",
"1%	c #292824",
"2%	c #131312",
"3%	c #1A191C",
"4%	c #1F1E21",
"5%	c #2D2D33",
"6%	c #565661",
"7%	c #615F69",
"8%	c #72747E",
"9%	c #7F7F8C",
"0%	c #7E7E84",
"a%	c #37373A",
"b%	c #2C2C2C",
"c%	c #373539",
"d%	c #312F36",
"e%	c #2C292B",
"f%	c #262523",
"g%	c #222020",
"h%	c #1C1A1B",
"i%	c #333234",
"j%	c #4D4B50",
"k%	c #473E40",
"l%	c #B7A77B",
"m%	c #B0A985",
"n%	c #9C9775",
"o%	c #807B5D",
"p%	c #7C7856",
"q%	c #84825E",
"r%	c #908F6D",
"s%	c #A7A378",
"t%	c #B5A97F",
"u%	c #9F8F65",
"v%	c #443E31",
"w%	c #1F1F23",
"x%	c #0D0D0C",
"y%	c #0F0E0D",
"z%	c #171618",
"A%	c #242328",
"B%	c #45444C",
"C%	c #333139",
"D%	c #55545E",
"E%	c #75747E",
"F%	c #67676E",
"G%	c #302E34",
"H%	c #262529",
"I%	c #0F0F0D",
"J%	c #141313",
"K%	c #252222",
"L%	c #312D2E",
"M%	c #353031",
"N%	c #2E2B2C",
"O%	c #302E2F",
"P%	c #302E2E",
"Q%	c #222022",
"R%	c #272626",
"S%	c #1E1C1D",
"T%	c #303032",
"U%	c #3E3D40",
"V%	c #504F52",
"W%	c #47413C",
"X%	c #A69570",
"Y%	c #B7AA84",
"Z%	c #ABA57F",
"`%	c #A79F75",
" &	c #B6AD7E",
".&	c #B2A97C",
"+&	c #B7AD85",
"@&	c #B8A87E",
"#&	c #927E5C",
"$&	c #545660",
"%&	c #5B5C65",
"&&	c #110F0E",
"*&	c #141316",
"=&	c #343237",
"-&	c #29272D",
";&	c #403E48",
">&	c #65646C",
",&	c #3F3C43",
"'&	c #221F20",
")&	c #3B3436",
"!&	c #3A3537",
"~&	c #312F30",
"{&	c #292727",
"]&	c #232324",
"^&	c #2A292D",
"/&	c #363537",
"(&	c #424042",
"_&	c #47464A",
":&	c #3E393A",
"<&	c #756754",
"[&	c #AC9C7D",
"}&	c #B2A484",
"|&	c #B8AC85",
"1&	c #BEB183",
"2&	c #AA9973",
"3&	c #8B7B64",
"4&	c #504E58",
"5&	c #60616F",
"6&	c #585963",
"7&	c #1B1C1E",
"8&	c #121110",
"9&	c #111113",
"0&	c #28272D",
"a&	c #2B2A31",
"b&	c #424048",
"c&	c #38373D",
"d&	c #222126",
"e&	c #0E0D0E",
"f&	c #171516",
"g&	c #211E1F",
"h&	c #342F31",
"i&	c #343234",
"j&	c #2C2C2D",
"k&	c #313132",
"l&	c #303035",
"m&	c #3D3D44",
"n&	c #353539",
"o&	c #333338",
"p&	c #363539",
"q&	c #38383A",
"r&	c #403E41",
"s&	c #323034",
"t&	c #494653",
"u&	c #7A7889",
"v&	c #737074",
"w&	c #736F71",
"x&	c #4B4745",
"y&	c #4A4954",
"z&	c #2D2B34",
"A&	c #29262A",
"B&	c #232124",
"C&	c #1C1C1F",
"D&	c #302F36",
"E&	c #232329",
"F&	c #3A3A40",
"G&	c #2A292B",
"H&	c #302F34",
"I&	c #2E2E32",
"J&	c #323136",
"K&	c #29282D",
"L&	c #2B2B2E",
"M&	c #2F2E33",
"N&	c #434244",
"O&	c #424244",
"P&	c #3F3E3F",
"Q&	c #323135",
"R&	c #313032",
"S&	c #2D2C2F",
"T&	c #3A3839",
"U&	c #323031",
"V&	c #1B1A1E",
"W&	c #2D2D32",
"X&	c #373637",
"Y&	c #2F2F2F",
"Z&	c #2E2E2E",
"`&	c #2B2B2C",
" *	c #414246",
".*	c #48484C",
"+*	c #3D3C41",
"@*	c #303033",
"#*	c #2B2A2D",
"$*	c #2C2C2F",
"%*	c #2F2E32",
"&*	c #414144",
"**	c #353538",
"=*	c #353334",
"-*	c #3A383A",
";*	c #3B3A3C",
">*	c #343334",
",*	c #282627",
"'*	c #2B2A30",
")*	c #222125",
"!*	c #222122",
"~*	c #39393B",
"{*	c #3C3C3E",
"]*	c #353537",
"^*	c #47474B",
"/*	c #48484D",
"(*	c #403F44",
"_*	c #36343A",
":*	c #414044",
"<*	c #28282B",
"[*	c #2E2D33",
"}*	c #2E2D31",
"|*	c #343338",
"1*	c #363639",
"2*	c #38393B",
"3*	c #3A393B",
"4*	c #414043",
"5*	c #333335",
"6*	c #2C2B2C",
"7*	c #1E1D1F",
"8*	c #2D2D30",
"9*	c #3D3D3F",
"0*	c #3B3A3F",
"a*	c #3E3E42",
"b*	c #3C3C41",
"c*	c #3C3B40",
"d*	c #424145",
"e*	c #424046",
"f*	c #49484C",
"g*	c #242424",
"h*	c #1C1B1F",
"i*	c #313037",
"j*	c #313034",
"k*	c #323237",
"l*	c #373738",
"m*	c #302E30",
"n*	c #2A2A2B",
"o*	c #222224",
"p*	c #363638",
"q*	c #3A393E",
"r*	c #46464A",
"s*	c #3D3B41",
"t*	c #39373B",
"u*	c #424247",
"v*	c #353337",
"w*	c #1F1E20",
"x*	c #333337",
"y*	c #313033",
"z*	c #2F2F32",
"A*	c #2F2F31",
"B*	c #171718",
"C*	c #282828",
"D*	c #313133",
"E*	c #424346",
"F*	c #37363A",
"G*	c #302F33",
"H*	c #353436",
"I*	c #282829",
". . . . . . . . . . . . . . . . . . . . . . . . . . . . . . . . . . . . . . . . . . . . . . . . ",
". . . . . . . . . . . . . . . . . . . . . . . . . . . . . . . . . . . . . . . . . . . . . . . . ",
". + + . . . + + . . . + + . . . + + . . . + + . . @ @ @ . . . + + . . . + + . . . + + . . . + + ",
". + + . . . + + . . . + + . . . + + . . . + + . . . + + . . . + + . . . + + . . . + + . . . + + ",
". + + . . . + + . . . + + . . . + + . . . + + . . . + + . . . + + . . . + + . . . + + . . . + + ",
". . . . . . . . . . . . . . . . . . . . . . . . . . . . . . . . . . . . . . . . . . . . . . . . ",
". . . . . . . . . . . . . . . . . . . . . . . . . . . . . . . . . . . . . . . . . . . . . . . . ",
". . . . . . . . . . . . . . . . . . . . . . . . . . . . . . . . . . . . . . . . . . . . . . . . ",
". # $ % & * = - ; > , > ' ) ! ~ { ] , ] ^ / ( _ : < [ ; } | 1 * * 2 3 4 5 6 7 8 9 0 a b c d e . ",
". f g h i j k l 2 ] m n o p f o q > o p r s t u v w ; x y * z 1 A 1 B C D E F G H I J K L M N . ",
". O P Q R S b ] ] f u ; f T 2 U b u V W X Y Z ` J  .w _ y * z 1 } g ..+.@.#.$.%.&.*.=.-.;.>.3 . ",
". ,.'.).!.~.{.].; ^./.n p z * 1 (._.u :.:.<.[.}.|.b w | y 1.| z } 2.3.4.5.6.7.8.9.0.0.a.b.~ c.. ",
". d.e.{ ~ f.g.h.f p ] ] ; z A } f w i.j j.k.l.m.n.o.; p.# A 2 q.} '.b r.s.t.u.v.w.x.9.y.z.A.B.. ",
". 1 C.D.E.F.G.H.I.J.} f ; /.A 1 p b.K.L.V M.N.O.P.Q.x z R.y p.A A S.T.U.V.W.X.Y.Z.`. +l .+L.J . ",
". v w z.++@+#+$+%+z * } /.V A # 2 v &+*+=+-+;+>+,+'+) 1 R.)+!+~+y {+]+e.L.^+/+(+_+b.W u ;.i.v . ",
". n o w : l.:+-.<+[+* * * }+} R.y x |+1+2+3+4+5+6+P 2 7+8+y 9+~+A 0+a+u e b+c+d+e+f+f V w n g+. ",
". '+F.b+B.O.h+i+j+k+l+A * m+} R.# | n+o+*+p+q+r+s+t+; * 8+# 9+u+* A * | O v+w+x+y+z+A+B+C+D+< . ",
". ; E+F+G+j+H+I+J+K+L+M+y N+q.# * A R O+P+Q+R+S+T+U+D+z R.V+W+X+Y+# 2 Z+`+ @.@+@@@#@$@%@&@*@@+. ",
". =@@+-@_+;@>@,@'@)@!@~@{@]@^@~+1 ~@/@(@_@:@<@[@}@|@ .1@# # 1 2@p.3@4@2 5@6@7@[ .+8@b+9@0@a@b@. ",
". c@d@e@f@g@h@5@2 ^.i@} # # j@k@8+V l@m@n@o@p@q@r@s@t@; } R.# V A y 1 V /.2 f+6 u@v@J w@x@y@z@. ",
". y.~ 8@A@B@C@D@E@F@G@1 H@]@# A # I@| J@K@L@M@N@O@P@Q@.+z A y 1 R.y | /.2 f b R@S@T@U@V@W@X@Y@. ",
". Z@`@t@6  #.#+#; j.* y R.H@y # } 8+# 1@@###$#%#&#*#Q@= ]+# # 8+8+} * ] J.o =#-#;#s >#,#'#)#!#. ",
". z.~#O {#%@z+]#^#p.1 # R.8+R.R.2 R.R.V /#(#_#:#<#[#l.}#1@R.R.8+8+8+1 p | |#i 1#2#3#4#5#6#7#8#. ",
". U.^.~#^..+;.b.L.f 1 # R.8+8+8+A 8+9#0#a#b#c#d#e#f#g#-#0#R.8+8+8+} f ; /.h#i#j#k#l#m#n#o#p#q#. ",
". h@r#s#t#e u#v#:.,@V A # 8+8+w#8+R.{@t+l@x#y#z#A#B#C#D#E#F## R.# } | f+G#H#I#J#K#L#M#N#O#P#Q#. ",
". r#R#S#T#N U#|., V m+R.V#8+w#w#w#8+# ~#W#X#Y#Z#`# $.$+$@$y R.R.#$$$%$&$*$=$-$;$>$,$'$)$!$~${$. ",
". ]$^$Z /$($_$:$b.<$[$z y A 8+w#8+8+R.}$|$1$2$3$4$5$6$U.,.A R.y k@7$}#8$9$0$a$b$c$d$e$f$g$h$i$. ",
". j$h$k$l$m$n$o$p$ .e q$~@1 # 8+r$8+8+h s$t$q@u$v$w$x$y$@#x y k@z$A$B$z#C$D$E$F$G$H$I$J$K$w@J . ",
". L$M$N$O$P$Q$R$S$T$U$V$; | y ~+u+8+I@W$X$Y$Z$`$ %.%+%@%y$#%y } $%%%&%*%=%-%;%>%,%'%)%!%|.o u . ",
". ~%{%]%^%/%(%_%:%<%[%}%|%1%2%^@)+)+R.3%4%5%6%7%8%9%0%@$a%]+A q.F@/.b%c%l.d%e%7 C f%g%b.h%o '.. ",
". i%j%k%l%m%n%o%p%q%r%s%t%u%v%w%x%y%y {@z%A%B%C%D%E%F%G%H%).y 7+I%J%K%L%M%N%O%P%a.Q%R%S%w P c@. ",
". T%U%V%W%X%Y%Z%`% &.&+&@&#&$&%&!@&&$$R.2 *&=&-&;&>&s+,&5@1@* ^@m+5@'&)&!&~&*@{&+.G+J P ]&^&m$. ",
". @+/&(&_&:&<&[&}&|&1&2&3&4&5&6&7&8&^@# | )+9&0&a&b&c&d&J.} y y e&f&g&h&i&s j&c.J ].f.k&l&m&n&. ",
". o&p&q&6.r&s&t&u&v&w&x&y&z&A&B&t#1 A # # A g C&D&E&F&).z ~@V } | 7@- i.c+-@G&;. +h@H&I&J&@#J&. ",
". K&L&M&i%N&O&P&Q&R&S&_$k&k&T&~&U&T * # 8+y A * V&J+W&f w 2 p A z ] ].P t X&Y&Z&`&c@i  *.*f@+*. ",
". @*#*$*%*n&&***k&=*i&[.-*`.;*>*,*n /.y R.y } * ~@'*)*f /.z * y | ; !*]&#*~*{*]***&*^*/*(*_*:*. ",
". <*L&[*<*}*|*1*2*;*3*4*a@k&3*5*6*v V y 8+# A } 2.).7*] u 1 | # 2@| 3 h@8*9*0*a*b*c*+*{%d*e*f*. ",
". g*h*K.Q.S % i*j*k***o$q&l*m*]*n*].u * R.y } * * f c@o*p /.| * y 1 ; n*S&p*~%q*r*s*t*p&u*v*c+. ",
". i@w*)@v+).S.L&Q&x*l&p&&*y*o$z*A*F.] y R.A z * z f B*/.2 V 2 | R.y f C*p$5*D*E*F*T@G*T@H*r#I*. ",
". . . . . . . . . . . . . . . . . . . . . . . . . . . . . . . . . . . . . . . . . . . . . . . . ",
". . . . . . . . . . . . . . . . . . . . . . . . . . . . . . . . . . . . . . . . . . . . . . . . ",
". . . . . . . . . . . . . . . . . . . . . . . . . . . . . . . . . . . . . . . . . . . . . . . . ",
". . . . . . . . . . . . . . . . . . . . . . . . . . . . . . . . . . . . . . . . . . . . . . . . ",
". + + . . . + + . . . + + . . . + + . . . + + . . . + + . . . + + . . . + + . . . + + . . . + + ",
". + + . . . + + . . . + + . . . + + . . . + + . . . + + . . . + + . . . + + . . . + + . . . + + ",
". + + . . . + + . . . + + . . . + + . . . + + . . . + + . . . + + . . . + + . . . + + . . . + + ",
". . . . . . . . . . . . . . . . . . . . . . . . . . . . . . . . . . . . . . . . . . . . . . . . ",
". . . . . . . . . . . . . . . . . . . . . . . . . . . . . . . . . . . . . . . . . . . . . . . . "};
