<?xml version="1.0" encoding="UTF-8" standalone="no"?>
<svg
   xmlns:dc="http://purl.org/dc/elements/1.1/"
   xmlns:cc="http://creativecommons.org/ns#"
   xmlns:rdf="http://www.w3.org/1999/02/22-rdf-syntax-ns#"
   xmlns:svg="http://www.w3.org/2000/svg"
   xmlns="http://www.w3.org/2000/svg"
   xmlns:sodipodi="http://sodipodi.sourceforge.net/DTD/sodipodi-0.dtd"
   xmlns:inkscape="http://www.inkscape.org/namespaces/inkscape"
   version="1.1"
   width="24"
   height="24"
   viewBox="0 0 24 24"
   id="svg2"
   inkscape:version="0.91 r13725"
   sodipodi:docname="image-rotation-right.svg"
   inkscape:export-filename="D:\Daten\Repositories\GIT\PFS\res\icons\image_rotation_right_16.png"
   inkscape:export-xdpi="60"
   inkscape:export-ydpi="60">
  <metadata
     id="metadata10">
    <rdf:RDF>
      <cc:Work
         rdf:about="">
        <dc:format>image/svg+xml</dc:format>
        <dc:type
           rdf:resource="http://purl.org/dc/dcmitype/StillImage" />
        <dc:title></dc:title>
      </cc:Work>
    </rdf:RDF>
  </metadata>
  <defs
     id="defs8">
    <pattern
       y="0"
       x="0"
       height="6"
       width="6"
       patternUnits="userSpaceOnUse"
       id="EMFhbasepattern" />
  </defs>
  <sodipodi:namedview
     pagecolor="#ffffff"
     bordercolor="#666666"
     borderopacity="1"
     objecttolerance="10"
     gridtolerance="10"
     guidetolerance="10"
     inkscape:pageopacity="0"
     inkscape:pageshadow="2"
     inkscape:window-width="974"
     inkscape:window-height="638"
     id="namedview6"
     showgrid="false"
     inkscape:zoom="8"
     inkscape:cx="8.8992017"
     inkscape:cy="8.2461803"
     inkscape:window-x="1629"
     inkscape:window-y="721"
     inkscape:window-maximized="0"
     inkscape:current-layer="svg2" />
  <path
     id="path4-9"
     d="m 9.4001996,10.960154 -0.2599757,2.859744 4.1595871,-0.519953 -0.779923,5.459512 -7.279277,-7.27935 m 7.799225,8.83921 7.27928,-7.27935 c 0.577142,-0.577148 0.571943,-1.507864 0,-2.079813 l -7.27928,-7.2793494 a 1.4706364,1.4706507 0 0 0 -2.079794,0 L 3.680764,10.960154 a 1.4706364,1.4706507 0 0 0 -10e-8,2.079813 l 7.2792781,7.27935 a 1.4706364,1.4706507 0 0 0 2.079794,0 z M 7.5,2.5 C 4.25,4.07 1.91,7.24 1.55,11 l -1.5,0 C 0.56,4.84 5.71,0 12,0 L 12.66,0.03 8.85,3.84 7.5,2.5 Z m 9,19 c 3.25,-1.56 5.59,-4.74 5.95,-8.5 l 1.5,0 C 23.44,19.16 18.29,24 12,24 l -0.66,-0.03 3.81,-3.81"
     style="fill:#34495e;fill-opacity:1" />
</svg>
