<?xml version="1.0" encoding="UTF-8" standalone="no"?>
<svg
   xmlns:dc="http://purl.org/dc/elements/1.1/"
   xmlns:cc="http://creativecommons.org/ns#"
   xmlns:rdf="http://www.w3.org/1999/02/22-rdf-syntax-ns#"
   xmlns:svg="http://www.w3.org/2000/svg"
   xmlns="http://www.w3.org/2000/svg"
   xmlns:sodipodi="http://sodipodi.sourceforge.net/DTD/sodipodi-0.dtd"
   xmlns:inkscape="http://www.inkscape.org/namespaces/inkscape"
   version="1.1"
   width="24"
   height="24"
   viewBox="0 0 24 24"
   id="svg2"
   inkscape:version="0.91 r13725"
   sodipodi:docname="image-rotation-left.svg"
   inkscape:export-filename="D:\Daten\Repositories\GIT\PFS\res\icons\image_rotation_left_16.png"
   inkscape:export-xdpi="60"
   inkscape:export-ydpi="60">
  <metadata
     id="metadata10">
    <rdf:RDF>
      <cc:Work
         rdf:about="">
        <dc:format>image/svg+xml</dc:format>
        <dc:type
           rdf:resource="http://purl.org/dc/dcmitype/StillImage" />
        <dc:title />
      </cc:Work>
    </rdf:RDF>
  </metadata>
  <defs
     id="defs8">
    <pattern
       y="0"
       x="0"
       height="6"
       width="6"
       patternUnits="userSpaceOnUse"
       id="EMFhbasepattern" />
  </defs>
  <sodipodi:namedview
     pagecolor="#ffffff"
     bordercolor="#666666"
     borderopacity="1"
     objecttolerance="10"
     gridtolerance="10"
     guidetolerance="10"
     inkscape:pageopacity="0"
     inkscape:pageshadow="2"
     inkscape:window-width="1208"
     inkscape:window-height="638"
     id="namedview6"
     showgrid="false"
     inkscape:zoom="8"
     inkscape:cx="7.1579873"
     inkscape:cy="8.2461803"
     inkscape:window-x="1663"
     inkscape:window-y="601"
     inkscape:window-maximized="0"
     inkscape:current-layer="svg2" />
  <path
     id="path4-9"
     d="m 10.960093,14.599826 2.859744,0.259975 -0.519953,-4.159586 5.459511,0.779922 -7.279349,7.279277 m 8.83921,-7.799225 -7.27935,-7.2792794 c -0.577148,-0.5771427 -1.507864,-0.5719432 -2.079813,2e-7 L 3.6807436,10.960189 a 1.4706507,1.4706364 0 0 0 0,2.079794 l 7.2793494,7.279278 a 1.4706507,1.4706364 0 0 0 2.079813,0 l 7.27935,-7.279278 a 1.4706507,1.4706364 0 0 0 0,-2.079794 z M 16.5,2.5 c 3.25,1.57 5.59,4.74 5.95,8.5 l 1.5,0 C 23.44,4.84 18.29,0 12,0 L 11.34,0.03 15.15,3.84 16.5,2.5 Z m -9,19 C 4.25,19.94 1.91,16.76 1.55,13 l -1.5,0 C 0.56,19.16 5.71,24 12,24 l 0.66,-0.03 -3.81,-3.81"
     style="fill:#34495e;fill-opacity:1" />
</svg>
