/* XPM */
static char *p[] = {
/* columns rows colors chars-per-pixel */
"32 32 144 2 ",
"   c black",
".  c #010101",
"X  c #020202",
"o  c gray1",
"O  c #040404",
"+  c gray2",
"@  c #060606",
"#  c #070706",
"$  c #070707",
"%  c gray3",
"&  c #090909",
"*  c gray4",
"=  c #0B0B0B",
"-  c #0C0C0B",
";  c gray5",
":  c #0E0E0E",
">  c gray6",
",  c #10100F",
"<  c #11110F",
"1  c #101010",
"2  c gray7",
"3  c #131313",
"4  c gray8",
"5  c #161616",
"6  c gray9",
"7  c #181716",
"8  c #191919",
"9  c gray10",
"0  c #1B1B1B",
"q  c gray11",
"w  c #1D1D1D",
"e  c #1E1E1E",
"r  c #202020",
"t  c gray13",
"y  c #232323",
"u  c gray14",
"i  c #252525",
"p  c gray15",
"a  c #272727",
"s  c #2B2925",
"d  c gray16",
"f  c #2A2A2A",
"g  c #2C2C2C",
"h  c gray18",
"j  c #35332D",
"k  c gray19",
"l  c #323232",
"z  c gray20",
"x  c #343434",
"c  c #353535",
"v  c gray21",
"b  c #373737",
"n  c #3A3830",
"m  c #3E3C33",
"M  c gray22",
"N  c #3A3A3A",
"B  c #3F3F3F",
"V  c #413F36",
"C  c gray25",
"Z  c #434241",
"A  c #474540",
"S  c #444444",
"D  c #464646",
"F  c gray29",
"G  c #4B4B4B",
"H  c gray30",
"J  c #56544B",
"K  c #58564B",
"L  c #5C594C",
"P  c #5D5A4C",
"I  c #505050",
"U  c gray32",
"Y  c #555555",
"T  c #565656",
"R  c gray34",
"E  c #585858",
"W  c #595858",
"Q  c gray35",
"!  c gray36",
"~  c #5F5F5F",
"^  c #646050",
"/  c #726E5B",
"(  c gray38",
")  c #646464",
"_  c #676664",
"`  c #686868",
"'  c #6A6A6A",
"]  c #6D6D6D",
"[  c #6F6F6F",
"{  c #777363",
"}  c gray44",
"|  c gray45",
" . c #767676",
".. c #777777",
"X. c gray47",
"o. c #8D8775",
"O. c #A69E7E",
"+. c #848484",
"@. c gray54",
"#. c gray56",
"$. c #9A9480",
"%. c #909090",
"&. c gray59",
"*. c gray60",
"=. c #9F9F9F",
"-. c #AFAFAF",
";. c #B9B4A3",
":. c gray71",
">. c #B6B6B6",
",. c #C6BC9C",
"<. c #C8BF9D",
"1. c #DECD87",
"2. c #DFCD88",
"3. c #DFCE8A",
"4. c #DFCF8C",
"5. c #DECF8D",
"6. c #DFCF8E",
"7. c #CCC29D",
"8. c #D0C596",
"9. c #D3C796",
"0. c #D5C996",
"q. c #DBCE97",
"w. c #DDCF94",
"e. c #DFCF95",
"r. c #DECF96",
"t. c #D0C69E",
"y. c #DBCE98",
"u. c #DBCF9E",
"i. c #DED095",
"p. c #DDD098",
"a. c #DED09B",
"s. c #DACDA0",
"d. c gray81",
"f. c gray84",
"g. c #D8D4D2",
"h. c #DAD6D3",
"j. c #E3DEDB",
"k. c gray91",
"l. c #EFEFEF",
"z. c #F1F1F1",
"x. c gray96",
"c. c #F6F6F6",
"v. c #F9F9F9",
"b. c white",
/* pixels */
"                                                                ",
"% z 1   X l 5     h w     a y     t d     0 k     4 z o   : z * ",
"b b.I   6 b.}     c.#.    f.-.    >.d.    &.l.    ..b.1   R b.k ",
"v b.I   5 b.}     x.#.    f.-.    >.d.    &.l.     .b.1   T b.k ",
"* v 2   o z 5     k w     f y     y d     w k     5 x o   1 z * ",
"@ $ ! .                                       X   X H $         ",
"1 & : H                                       o   Q 6 =         ",
"p F   T Y                                     8 3 !     9 = > 3 ",
"  p ) + ] w                   X o             4 B o = 5 6       ",
"  X > X.2 R X               g p 2             X + : a           ",
"    % 8 E & h           X & D t d                 X             ",
"M N 5   ; U O           : > i ( e =                             ",
"    r c q X 8             % S *.=.:                             ",
"        X X                 M ' k.O                   O $     L ",
"                            u ` z.e                   n     m q.",
"                            $ @.v.G :             ^ 8.O.7 # 0.y.",
"                            : +.b.Q o           , 6.1.w.9.3.4./ ",
"                            y | b.~             h.;.i.1.1.p.P   ",
"  Z -                       g H :.%.&           g.j._ V s       ",
"  $.r.,.. $ W <.{             w C [ O                           ",
"  O t.1.u.s.5.1.a.-             O g >                           ",
"      o.e.1.2.7.A J               O                             ",
"        < K j                                                   ",
"                                                                ",
"                                                                ",
"                                                                ",
"                                                                ",
"% z 1   X l 5     h w     a y     t d     0 k     4 z o   : z * ",
"b b.I   6 b.}     c.#.    f.-.    >.d.    &.l.    ..b.1   R b.k ",
"v b.I   5 b.}     x.#.    f.-.    >.d.    &.l.     .b.1   T b.k ",
"* z 1   o z 5     k w     f y     y d     w k     5 z o   1 z * ",
"                                                                "
};
